<svg xmlns="http://www.w3.org/2000/svg" viewBox="0 0 82.17 46.15"><defs><style>.cls-1{fill:#fefefe;}.cls-2{fill:#121313;}</style></defs><title>Asset 1</title><g id="Layer_2" data-name="Layer 2"><g id="Layer_1-2" data-name="Layer 1"><path class="cls-1" d="M41.12,46.09c-12.64,0-25.28,0-37.93,0C1,46.15,0,46,0,43.21Q.29,23,0,2.79C0,.31.65,0,2.88,0Q41.05.17,79.23,0c2.84,0,2.91,1,2.9,3.22-.08,13.31-.13,26.62,0,39.92,0,2.61-.73,3-3.12,3C66.41,46,53.77,46.09,41.12,46.09Z"/><path class="cls-2" d="M81.09,41.09a3.9,3.9,0,0,1-2.45,3.68c-1.93.86-3.5.09-4.91-1.33q-8.27-8.32-16.59-16.59C52.68,22.38,48.07,18,43.8,13.39c-2.11-2.29-3.27-2.21-5.42,0-9.51,9.78-19.23,19.36-28.88,29C8.23,43.66,7.11,45.2,5,45.1a3.92,3.92,0,0,1-3.51-2.4,3.78,3.78,0,0,1,.93-4.56Q20.18,20.29,38,2.49c2-2,4.17-2,6.16,0Q62,20.3,79.82,38.15A3.66,3.66,0,0,1,81.09,41.09Z"/></g></g></svg>