<svg id="Layer_1" data-name="Layer 1" xmlns="http://www.w3.org/2000/svg" viewBox="0 0 472 298.2"><defs><style>.cls-1{fill:#d1d8d5;}.cls-2{fill:#73727a;}.cls-3{fill:none;}.cls-4{fill:#717073;}.cls-5{fill:#ccc;}.cls-6{fill:#fad055;}.cls-7{fill:#c96;opacity:0.51;}</style></defs><title>cat-back2</title><polygon class="cls-1" points="1.19 191 112.92 260.56 0.83 298.2 1.19 191"/><polygon class="cls-2" points="390.92 175.37 0 298.2 387.4 240.67 390.26 181.33 390.92 175.37"/><path class="cls-3" d="M400,218.49"/><polyline class="cls-4" points="251.94 0.19 114.03 102.95 0.48 52.66 0.48 0"/><polyline class="cls-5" points="191.36 0 114.03 57.62 0.48 7.33 0.48 0"/><polyline class="cls-4" points="112.92 260.56 211.14 227.51 0.12 163.96 1.19 191"/><path class="cls-6" d="M400,164,1.07,298.2,395,206"/><path class="cls-7" d="M334.66,205.34.48,298.2l333.79-61.41C336.5,230.4,335.33,223.53,334.66,205.34Z"/><line class="cls-3" x1="472" y1="129.33" x2="468" y2="185.33"/></svg>