<svg id="Layer_1" data-name="Layer 1" xmlns="http://www.w3.org/2000/svg" viewBox="0 0 559.62 298.2"><defs><style>.cls-1{fill:#d1d8d5;}.cls-2{fill:#73727a;}.cls-3{fill:none;}.cls-4{fill:#717073;}.cls-5{fill:#ccc;}.cls-6{fill:#fad055;}.cls-7{fill:#c96;opacity:0.51;}</style></defs><title>cat-back</title><polygon class="cls-1" points="1.67 191 157.97 260.56 1.17 298.2 1.67 191"/><polygon class="cls-2" points="546.93 175.37 0 298.2 542 240.67 546 181.33 546.93 175.37"/><path class="cls-3" d="M559,218.49" transform="translate(0.67)"/><polyline class="cls-4" points="352.48 0.19 159.54 102.95 0.67 52.66 0.67 0"/><polyline class="cls-5" points="267.72 0 159.54 57.62 0.67 7.33 0.67 0"/><polyline class="cls-4" points="157.97 260.56 295.39 227.51 0.17 163.96 1.67 191"/><path class="cls-6" d="M559,164,.83,298.2,552,206" transform="translate(0.67)"/><path class="cls-7" d="M467.54,205.34,0,298.2l467-61.41C470.12,230.4,468.48,223.53,467.54,205.34Z" transform="translate(0.67)"/><line class="cls-3" x1="552.67" y1="129.33" x2="548.67" y2="185.33"/></svg>