<svg xmlns="http://www.w3.org/2000/svg" width="44.1" height="80" viewBox="0 0 44.1 80"><title>Asset 1</title><g id="Layer_2" data-name="Layer 2"><g id="Layer_1-2" data-name="Layer 1"><g id="Layer_2-2" data-name="Layer 2"><g id="Layer_2-2-2" data-name="Layer 2-2"><path d="M40.1,0a3.9,3.9,0,0,1,3.7,2.5c.9,1.9.1,3.5-1.3,4.9L25.9,24c-4.5,4.4-8.8,9-13.5,13.3-2.3,2.1-2.2,3.3,0,5.4,9.8,9.5,19.4,19.2,29,28.9,1.3,1.3,2.8,2.4,2.7,4.5a3.9,3.9,0,0,1-2.4,3.5,3.8,3.8,0,0,1-4.6-.9L1.5,43.1c-2-2-2-4.2,0-6.2L37.2,1.3A3.7,3.7,0,0,1,40.1,0Z" fill="#121313"/><path d="M40.1,0a3.9,3.9,0,0,1,3.7,2.5c.9,1.9.1,3.5-1.3,4.9L25.9,24c-4.5,4.4-8.8,9-13.5,13.3-2.3,2.1-2.2,3.3,0,5.4,9.8,9.5,19.4,19.2,29,28.9,1.3,1.3,2.8,2.4,2.7,4.5a3.9,3.9,0,0,1-2.4,3.5,3.8,3.8,0,0,1-4.6-.9L1.5,43.1c-2-2-2-4.2,0-6.2L37.2,1.3A3.7,3.7,0,0,1,40.1,0Z" fill="#fff"/></g></g></g></g></svg>