<svg xmlns="http://www.w3.org/2000/svg" viewBox="0 0 44.11 80.06"><defs><style>.cls-1{fill:#121313;}.cls-2{fill:#231f20;}</style></defs><title>Asset 1</title><g id="Layer_2" data-name="Layer 2"><g id="Layer_2-2" data-name="Layer 2"><path class="cls-1" d="M4,80A3.9,3.9,0,0,1,.36,77.6c-.86-1.93-.09-3.5,1.33-4.91Q10,64.42,18.28,56.1c4.47-4.47,8.82-9.08,13.47-13.35,2.29-2.11,2.21-3.27,0-5.42C22,27.81,12.38,18.1,2.74,8.45,1.47,7.17-.08,6.05,0,3.92A3.92,3.92,0,0,1,2.43.41,3.78,3.78,0,0,1,7,1.34Q24.84,19.13,42.63,37c2,2,2,4.17,0,6.16Q24.83,61,7,78.77A3.66,3.66,0,0,1,4,80Z"/><path class="cls-2" d="M4,80A3.9,3.9,0,0,1,.36,77.6c-.86-1.93-.09-3.5,1.33-4.91Q10,64.42,18.28,56.1c4.47-4.47,8.82-9.08,13.47-13.35,2.29-2.11,2.21-3.27,0-5.42C22,27.81,12.38,18.1,2.74,8.45,1.47,7.17-.08,6.05,0,3.92A3.92,3.92,0,0,1,2.43.41,3.78,3.78,0,0,1,7,1.34Q24.84,19.13,42.63,37c2,2,2,4.17,0,6.16Q24.83,61,7,78.77A3.66,3.66,0,0,1,4,80Z"/></g></g></svg>