<svg xmlns="http://www.w3.org/2000/svg" width="252.5" height="417.4" viewBox="0 0 252.5 417.4"><title>Asset 1@2x-8</title><g id="Layer_2" data-name="Layer 2"><g id="sakhtemoon"><path d="M79.4,212.4l-.2.4h-.3c.1-5.9-.5-12.3-.7-18.3-2.3-2.4-5.1-1.4-6.3,1.7-1.4-4.8,1.6-5.6,5.6-5.9a9.9,9.9,0,0,0-.9-2.1l.8-.6c0-.6,0-1.2,0-1.8a8,8,0,0,1,1.9,3.4c.7.2.8,1.1,1,1.7s-.9.5-1,1h.3c.4-1,1.3-1.2,1.8-2h.9l-.5-1.2h.3a6.3,6.3,0,0,1,.2-1l-.6-.2c0-1.6,2.4-2.8,3.6-3.5s1-20-.9-23.8c-1.9-.5-1.4,1.4-1.4,2.8-1.1-.2-1.3-.6-1.2-1.8l-.4-.3a2.3,2.3,0,0,1,.3-1.2l-.6-.2c0-1.2,2.3-3.1,3.4-3.3,0-1.9,1.4-10.1-1.3-10.1a8.4,8.4,0,0,0-.4,2.5l-.7-.2c0-2.4.4-2.1,2-3.4l-.3-.2c1.3-.9,1-7.8,0-9s-1.1,1.7-1.2,2.7-.7-.3-1.2-.4.1-.9.1-1.5h-.4c0-.3,0-.6,0-.9h.5c0-.2,0-.3,0-.4h-.5c0-1.5,2.1-2.1,2.9-3.1l-.3-7c-1.6-.5-1.1,2.1-1.1,2.9-3.4-1-1.7-6.8,1.8-5.9,0-2-.4-4.4,2.9-3.5v.3l.5.2-.2-.4c2.4-1,2.4-1,2.9-1l-2.7,1.6.3.5c4.1-1.5,8.3-4.2,12.1-6.5l.3.5.8.2c-.2-.8-.2-.8-.4-.9l.5-.2v2.3c-3.3.6-10,5.3-12.3,6.5,0,.8,0,1.7,0,2.5H88.1a3.2,3.2,0,0,0-.1.7l-1.3.2a10.3,10.3,0,0,0-.1,1.2c-2.3.9-1.6,4.5-1.4,6.6,2,.1,1.8,2,1.7,3.9l-.8.6v.4c-1.6.5-.7,5-.7,6.1l.7.2a3.7,3.7,0,0,1,.5,1.9h-.7c0,.4,0,.8,0,1.3l3.1,1.7c0-.9,0-1.8.1-2.7,1.6-1.2,7.7-6.1,7.7-7.4h.5c2.7-5.5,9.4-4.2,5.5-10.8l-.7-.2v-.4a4,4,0,0,1-1.6-3.9l.9-.3-1.5-2.7h.4c-.5-1.2.4-1.8,0-3a2.3,2.3,0,0,0,1.3-1.1h.4l.3.6h.4c.9-2.2.3-4.9,0-7.4l-.5-.3c-1,.3-.7,1.5-.7,2.4s-.7.3-1,.2c-.5-3.5-2.2-4.6.7-7s6.4-9.8,10.2-9.8c-3.5,1.8,2.3-.3,3.1-.4l.3-.3c0,1,1.5.9,2.1,1.6s0-.7-.3-1,.3-.1,1.3.7c4,0,13.3-3.5,15.7,2.5,1.1-.2,1.3-.2,1.5-1.2h.5a1.4,1.4,0,0,1-.1-.4c.6.2.6.2,1.3.8l-.4.4c.5.7.5.7.5,1.1s-.9.3-1.3.8l.6,2.1h-.3c.3,1.8,1.6,5.5,1.2,7,1.2-.8,3.1-1.7,3.4-3.1l.7-.4a10.7,10.7,0,0,1,.1-1.2c.7,0,.7,0,.8.2a5.2,5.2,0,0,0-.2-2.2h-.4a9.8,9.8,0,0,1-.8-4.8l.3-.2a6.9,6.9,0,0,1,1.4-3.5h.4a15.3,15.3,0,0,0-1.7,6.1c.5.1,1.4-2.4,1.6-3.1,2.7-3,3.1-1.6,5.6-3.2,0-.2,0-.3,0-.4l-1.2-1.3a8,8,0,0,1,3.7,1.1c0,.1,0,.2,0,.4,2.6.9.6,5.2,0,6.6s.7,2.4.8,3.6h.5a52.3,52.3,0,0,0,2.7,6.5c3.6,0,3.8-.2,2.3,2.5,6-7.3,9.7-9.7,10.4-13.8s-.4-7.6-2.5-16c-1.3-3.3-6.5-11.8-1.7-14.6v.4h.9l.4.5-.8.2c0,.1,0,.2,0,.4l.7.4v1.3c.6.3.9,1.8.9,2.6l-.3.2.4.2c0,.2,0,.3,0,.5h.4l.3,1.8h.3a6.4,6.4,0,0,0-.2.9l.5.3-.6.3c.9.2.9.2,1.2.4s-.4,1.6-.9,1.9l.2.4c1.3-.9,2.4-2,3.9-2.4l.3-.8a6.7,6.7,0,0,1,0,3.6l1.5-.4v.4h.6c1.2,1.8,9,25.2,11.3,26.9a5.9,5.9,0,0,0,.1.9l-.4.2a1.5,1.5,0,0,1-.1-.5c-2.6,0-7.4.8-6.9,4.7l.6.3c1.1-1.5,6-3.6,7.8-3.4,9.7,22.4,6.3,14.9,26.5,1.9,0-.2,0-.4,0-.5h-.8a10.4,10.4,0,0,1-.1-1.2,2.7,2.7,0,0,0-1.7.8c-.1-.3-.1-.3.4-1.2l1.9-.4c3,4,.7,3.5-.2,7.9.5.9,2.7,4.2,2.4,5.2h-.5l-2.2-4.5c-1.5,0-9.9,6-5,6.7,1.7-.4,6.9-2.1,8.4-1.6,2.2,5.3,7.3,11.3,8.3,16.7h.4c.1.4.2.9.4,1.4h.5c.3,1.8,1.5,3.5,2.2,5.2h.4c0,.4.2.5.5,1.2s.8,1.2,1.1,1.9h.3l.3,1.1.4.2a4.8,4.8,0,0,0,.7,1.7h.4a3,3,0,0,1,.2,1.4h.5c.3.7.8,2.7,1.5,3,.7,2.3,2.6,4.4,3.2,6.8h.4l.7,2.1h.4c.3,1,.4,1.9,1.4,2.4l.2,1h.4l.5,1.8h.3v.7h.4l9.1,15.1-1.9,1-.8-2.1H245l-.2-.9h-.4l-.9-2.1c-1-.5-2.8-4.9-3.3-5.8l.2-.5h-.5l-.2-1.2-.6-.2a17,17,0,0,1-.6-2.7h-.7c-.2-1.2-1-2.2-1.2-3.4s-.8-2.2-1.9-2.8a11.4,11.4,0,0,1-.3-1.1h-.4a18.7,18.7,0,0,0-.9-2.3l-.5-.2A46.9,46.9,0,0,0,231,158h-.4l-1-2.8c-.4.1-.4.1-.6-.2s.1-.5.2-.6l-.5-.3c0-.2,0-.4,0-.5h-.5a3.9,3.9,0,0,1,0-.7c-.5,0-5.5-10.3-5.5-10.5h-.4c-2.3-6.2-6.4-11.9-9.1-18.1-.5-.1-.5-.1-8.7,1.6-.2,1.1-1.1,1.6-1.2,2.6-4.3-1.5,2.8,6.3,3,7.4s.8-.9,1.6-.9l.3.7.7.2a4.5,4.5,0,0,1-3.1,1.5,2,2,0,0,0,0,.6c2.9,9.1,8,19.9,10,29.3l11.8,32.4-1,.6-.7-1.3c-6.1-17.1-12.8-34.4-18.3-51.7l.7.5-.2-.8c-1.8,0-3.5-7.5-4.1-9.3l-2.8.6-.3,1.6-.9.5-.2-.4h-.8l-.7,1c2,3,2.2,8.7,4.6,12.6,1.9,1.6,4,3.9,6.1,5-.3.8-.5,1.7-.7,2.6h-.3c-.1-.8-.1-2.3-1-2.6s0-.3,0-.4-1.9-2-3.4-2.2c.3,2.9,2.4,5.5,3,8.2h.4c.7-2.4.7-2.4,1-2.8,0,1.2-.4,2.4-.4,3.6,1.7.9,2.1,2.8,1.9,4.8a6.5,6.5,0,0,0,1.5-.3,10.7,10.7,0,0,0-.2,1.4l-1.2.4c1,2.6,1.6,5.2,2.4,7.8h-1a6.5,6.5,0,0,0-1.8-2c0,.2,0,.4,0,.7h.5l1.5,3.9h.3c0,2.5,2.6,6,2.9,8.9l.3.2a13.4,13.4,0,0,0,.2,1.4h.3c1.4,3.6,3,9.6,5,12.5a8.7,8.7,0,0,0-.2-2.3H220c-.3-1.4-.6-1.9-1.2-4a16.3,16.3,0,0,1,3.2,2.6h.4v.4c.6-.2.8-.6,1.5-.6l.5,1.1,2.8-.5c.7,1.5.9,3.1,2.5,3.3v-.3l18-10.6v-.3l2.5-1v-.4l1-.5-2.2,7.8.6,3,1.5-.7.2-.6a22.8,22.8,0,0,1,.2,4.9c-1.9.6-7.4,1.7-8.1,3.8l1-.4v.7c.7.1.7.1,1.1-.1s-.2-.3,0-.6c1.9.3,3.6-1,5.8-.8,0,6.1,1,13.2.1,19.1-.7.2-.9.3-1.1,1a24.9,24.9,0,0,1-3.5.7,1.6,1.6,0,0,0,.1.4l-.3.2c-1.1-.5-3.1.4-4.3.4l.4-.6a4.6,4.6,0,0,0-2.3.8,8,8,0,0,0-.1,1.1c1.3,3.5,2,4.9,11.2,29a12.6,12.6,0,0,0,.1,3.6h-.4c-3.9-10.6-7.9-21.2-12.2-31.6h-.4c-.4.7-1.1,1.4-1.3,2.1s-1.2,2.2-1.4,3.3-.6.8-1.1,1.1l.3.7h-.7a2.8,2.8,0,0,0,.1.6l1.1.2.2-.5.4,1h-.5v.4h.5c.1.7.2,1.5,1,1.6l.2-.3a2.9,2.9,0,0,1-.7-1.6c2.7.2,3.5,5.1,2.9,7.2l-.4-1a8.5,8.5,0,0,0-.3,1.2h.7a1.4,1.4,0,0,0,.1.4h1.6a11.5,11.5,0,0,0,.4,1.2h-.5c-.3.5-.7.5-1.2.7,0,7.6,6.4,12.4,6.4,20.1l.6,1.8h2.1a3.3,3.3,0,0,1,.3,1.6l-1.2.6,1.1,3.5,1.9,1.9-.7.2,1,20.5h-.5l-6.7-20.1v-1h-.3v-.9l-.6-.9-8.2,2.3-.2.7-.5.2-.4.9.7.2.3,2.4h.5l10.8,30h1.8a2.9,2.9,0,0,0,1.5-.2l.8-1.2,1.2.2.5,33.3c-1.6.1-2.8.7-3.6-.8s3.4-3.5-.9-4.2c-1.5-4.2-2.8-5.3-.4-9l-.5-1c-3.8.8-10.1,3-13.1,5.3l6.3,20.2h1.3l.6,4.7,7.2,19.4,2.3.8v.4l1.1-.2-.2,33.6c-.3.2-.3.2-27.8.2v-.4c-.9.1-2.2.8-2.8-.2l-.3.2-.7-.6a2.7,2.7,0,0,0-.1.6l-3.5.2-.2-.3-1.1.3c0-.8-.6-.9-.8-1.5h.3c0-.3,0-.5,0-.7h-1v.7h.4v.6h-.4a2,2,0,0,0-.1.6c-.2-.6-.2-.6-.1-.9s-.8.5-1.4.6l-.3.5c-.2-.4-.2-.4-.6-.6s.2-.2,1.3-.3-.2-.4-.7-.7l.2-.5h.3c0-1.1-.5-.4-.7.4h-.7l-.3.5-.5-.2v.9h.9c-.2.5-.4.8-.9.9a2.6,2.6,0,0,1-.1-.6c-.1.3-.1.3-.5.4a7.7,7.7,0,0,1,.2-1.1h-.3l-.2-.5-.6.3c0-.3,0-.5,0-.7h1.4c-.3-.5-.2-.6-.7-.3s-.9-.1-1.4.1c-12.4-12.5-3-27.3,12.7-29.4h.4c0,.2,0,.3,0,.5h.5c.1.4.5.5.5.9l.7-.6a1.5,1.5,0,0,1-.1-.5h-.4v-.5c.4,0,.5.4.7.7s1.8-.5,2-1.1h-.3c0,.1,0,.2,0,.4a2.9,2.9,0,0,1-1.5-.6l.5-.2a2.5,2.5,0,0,1-.4-1.4h-.4l-.3,1.6h-.4l-.2-.7h.4c-.2-1-.5-.5-1.1-.5-8.4-2.8-12.4-9-5.3-9l.3-.5-.4-.7.5-.8c-18-11.4,4.2-15.5,4.2-14.8l.4-.2.6.4a8.8,8.8,0,0,0-.3,1.1h-.7l.2.4a2.1,2.1,0,0,1,1.2-.5v.8h.3l.2-.6c.3.4.3.4.3,1l.4.2a1.7,1.7,0,0,1,0-.5l.5.9H224a1,1,0,0,0-.1.4c.5.1.5.1.8.3l-.2.4c1-.3,1-.3,1.4-.2s0,.2,0,.4h-.6l.4.5-.2.6h.9l.7.8c.3-.2.3-.2.4-.6h.7c0,.9,0,.9-.2,1l.4.2c0,.1,0,.2,0,.4s1.1.8,2.2,1a.8.8,0,0,0,.1.3h.4a5.2,5.2,0,0,0,2,1.9,28.6,28.6,0,0,1-2.3-5.6l-.4-.2c.1.8.3,1.7.4,2.6l-.3.4c-.5-1.2-1.3-1.2-2-2.3h-.4c0-.2,0-.3,0-.4s-4.4-3.5-4.8-5.2c.3,0,.3,0,.3-.2h-.3a14.4,14.4,0,0,1,.4-3.9,10.7,10.7,0,0,0,.2,1.2l1.9-.5c-.4-1.3-.8-2.6-1.2-3.9h-.4a.8.8,0,0,0-.1.4c-1-1-.6-6.6-2.3-8.3-2.7,1.2-1.3,5.2-1.4,8h-.3l-.2-.5c-1.9,8.9-5.4,1.7-13.9-.1a8.5,8.5,0,0,1-.2-1l-.4.2-.2-.3-1.5-.2c0,.3,0,.3-.1.3v-.3c-13.6-6.3-25.1-6.3-39.7-1.8-4.4,2.3-9.7,4.7-12.6,9.1-.4,1.1-1.6,4-3.2,4l-.6-.8c0,.5,0,.9.1,1.5l-.4-.2c-1,3.7-6.8,5.6-10.1,6.1-.5.4-.5.4-3.6,1.7.1,1,.3,2.1.4,3.2l4.3-.8c0-.2,0-.3,0-.4s1.2.1,1.4-.7h.4c0,2-2.2,2.2-3.6,2.6s-.5,1.8-.7,2.7-.6.3-.8.9h-.4l.2,1a1.4,1.4,0,0,1-1.2-.8,11.3,11.3,0,0,0-3.1.7c.3,1.1.3,5.8,1.1,6.1l-.2-1.2.7.2a1.6,1.6,0,0,0,.1.5h.8a1.3,1.3,0,0,0,.1.4h.8c0,2.7-2,6.4-2.6,9.1l.7-.5c-.2,3.2-1.8,4.6-2.9,7.4,1.2-.6,1.6-2.2,2.2-3.4h.4c-.1,8.1-.2,15,2.2,22.7H120.9c-.1-.8-.2-1.6-.3-2.3-2,0-2.3,2.4-5.3,2.2,0-.3,0-.6,0-.8a4.2,4.2,0,0,0-.4.8l-3.5.2c.9-2.3,4.4-4.8,5.5-7.5-2.9-.6-13.4-4.2-15.8-.1-.2,2.4-.1,4.9-.1,7.4H98.6a16.2,16.2,0,0,1-.5-3.5c-.9.1-.9.1-1.1.3a1.7,1.7,0,0,1,.2-1.1l1,.4-.5-10.5-.4-.2c-.5,1.1-1-.1-1-.5h-.4c0,5.1.3,10,.2,15.1l-6.7.2c-.1-5.3-1.7-15.8-.4-21.5H89c-.4-8.7-.5-17.7-.3-26.4-.2-.5-.3-.9-.4-1.4-6.1-.5,0,5.5-4.1,7.7-1.8,2.8-1.8,2.8-2.1,3.5l2.9-1.2.3-.9h.4c-.1,5.2.1,6.4.5,40.3H84.6c-.1-.5-.1-.5.1-.8h-.5l-.2-.5a6.8,6.8,0,0,0,.1,1c-5.3.4.9-10.9-4.9-10.1-.1,3.5-.1,7-.1,10.5h-.4c0-2,1.4-13.7-1.8-14.8l.2,2.3h-.3l.2,10.3h-.7v.3h.5c0,.5,0,1,0,1.6H71.8V400.7c-4.3-2.1-11.7-2.1-16.7-.8L53.8,416l-.4-.2c0,2.4-5.1,1.2-6.7,1.2-1-4.3,1.2-10.1.7-14.6-4.6,1.4-1.3,11-3,14.6l-5.7-.2c.9-12.8,3.5-27.5,2-40.1h-.4v1a7.6,7.6,0,0,1-2.4-.3c0-1.4,0-2.7,0-4a4.1,4.1,0,0,1,.7-6.3,1,1,0,0,1,.1-.4h.5a1.9,1.9,0,0,0-.1.6h1c.7-1.1,1.3-.7,2.4-1l.2-.6c3.1-1.2,2.2-12.5,2.4-16l.3-.2v-.8l.3-.2c-.2-1.9-.1-3.8-.2-5.8.4-.2.4-.2.5-.5h-.3a130.2,130.2,0,0,1,.1-13.3h.6c0-.2,0-.3,0-.4-2.1-1.2-3.6-.1-5.4.9-.3,2.3-.1,5.9-2.7,6.4v.4c.4,0,.4,0,.4.2a1.1,1.1,0,0,0-1,.4l-.9.3c-.2,0-.2,0-.2.5h-.5c-.3.8-.8.7-1,1.6h-.4c1.1,1.5,3.4,2.4,5,3.1-.2,1.5-.4,2.9-.5,4.4a25,25,0,0,1-4.2-.9l-.2-.4a46.9,46.9,0,0,0-4.7-1c-1.3,13-2.6,26-3.5,39l2.5,1.3c6.7-3.3,6.7-3.3,7.9-3.7a77.1,77.1,0,0,0-.5,8.8c-1.4.3-2.1,1.9-2.5,3.1v-.9h-.4c-.4.9-.4.9-.5.9v-.5l-1.2.5-.2-.4h.4a4.7,4.7,0,0,1,.4-.9h-.5v-.3c-6.2-3.2-7.2,6.9-6.9,10.8,2.6-.8,4.8-2.2,7.3-3.1l.2-.4.7.2.3-.7.6-.2a1.3,1.3,0,0,0,.1.4h1.6c-.3,5.3-.3,5.3-.7,8.9h-.5a4.6,4.6,0,0,0-.4.9c-3.6-.4-5.1.2-8.2,1.4l-.2.6a2.2,2.2,0,0,0-1.6-.6l-.8,7.5-5.1-.2c-.3-.5-.4-.8-.8-.9l.4,1-.8-.2.3-.8a2.8,2.8,0,0,0-2.2.9,51.6,51.6,0,0,1-5.9-.2v-.4H10v-.5H9.3c.7-.4,2.3-.6,2.4-.8l.2.4,2.6.4c.3-.3.3-.7.3-1.1s.5-.5,1.1-.6l.7.6,2.7-21.4h-.4c-.4-2.3-3.2-1.9-3.9-3.6-.2.2-.2.2-.7.2a1,1,0,0,1-.1-.4l.6-.8H13.5l-.2-.4-5.2-.2c-.5-.5-4.1.3-5.4.2s-.8.8-1.5.9l-.2.4-.7.3-.2-.3H.8V389l-.4.2v-1.9c5.8-1.2,11.6-1.2,17.5-1.7.7.1,3.2.2,3.2-.2h-.4l-.5-.7h.4a.7.7,0,0,1,.1-.3h.6a22.7,22.7,0,0,1,.5-2.4,8.3,8.3,0,0,1-2.8-1h2.8v-1.4l.3-.2,3.4-46.7c-.5-.3-.8-.7-1.4-.9,4.6-3.6-15.1-12-19.3,3.3a3.5,3.5,0,0,0-1.8-.2c0,1,1.4.9,1.6,2H3.7c-.1.4.3,1.1.2,1.7s-1.8-2.8-3.7-3a5.9,5.9,0,0,1-.1-.9l.9-.2a18.9,18.9,0,0,1-.9-6.3c.4-.1,2.1.7,2.7.8l.2,1.2c1.2-1.3,1.2-1.3,1.6-1.5s0-.2,0-.3c13.2-8.7,18.9-2.5,20.5-2.7l.2.4,1-.3c0-.3,0-.6,0-.9h-.5v-.4l.4-.2c.2-.8.5-.8.7-1.4a1.3,1.3,0,0,0-1.1.1l-1.1-1.5,1.4.5,3-24.9h-.3l.5-1h.4c0-7.9-16.5-6.1-19.6-.5,0-.9.4-1.5.3-2.3s-3,0-3.4,1.3-3.7,2.1-4.9,3.4,5.6,3.4,6.9,4a46.9,46.9,0,0,1-.7,6.3c-2.4-.3-5.6-2-7.8-3.2a65,65,0,0,1-.2-7c4.1-3.2,8.2-4.9,9.3-9.8,1.3-.3,1.3-.7,2.7-.3l.3,1.5h.9a3.1,3.1,0,0,1-1.4,1.5q0,.4,0,.8c4.5,0,8.7-1.7,13.5-1.1v-.3c-.7-.1-1.3-.1-1.7-.7h-.4c-.2-.4-.3-.8-.7-.9l-.2.3h-.7l.2-.7h-.5a2.8,2.8,0,0,0,.1.6l-.3.3c-.8-.3-1.1-.9-2.2-.7v-.3h.6l.3-.6h.6v-.4h.5V287h-.3v-.5a12.5,12.5,0,0,1,2,.3.8.8,0,0,1,.1-.4c1.2-.1,1.2-.1,5.8.6.2-1.4.4-2.7.7-4h.3c-.2,1.4-.4,2.9-.5,4.3h1.4c-.1-.8-.3-.9,0-1.7h-.4v-1.4h.5l-.9-1.5h-.4l-.3-1.1c-.7.2-.7.3-1.2.8,0-1.5-.1-1-.6-1.9l.2-.3-.8-.6-.5.5c-.5-.3-.5-.9-.9-1.2s-.3.9-.5.9l-.4-.9c-.2.4-.2.4-.6.5v-.9l-.4.2a2,2,0,0,0-.1.6h-.4c0-1.7-3-.7-4.2-.7v.4c-4.5,0-7.2,2.8-7.8,7.1-4.3-8,7.7-10.7,13.2-9.9a10.7,10.7,0,0,1,.5-2.1,6.8,6.8,0,0,1,3.2-.1l.2-.6,1.2-.5a6.6,6.6,0,0,0,.3-2.3h.8a4.4,4.4,0,0,1,.7,2.9h-.6l.4.9L32,274a2.2,2.2,0,0,0-.5-1.4c1.3-.6-1-5.3,1.8-6.7v-.3l.4-.2-.2-1.3-.8-.3a1.4,1.4,0,0,1-.1-.4h.7v-.4l.5-.3.2.3h.5a14.3,14.3,0,0,1-.7-1.5l.6-.2a2.3,2.3,0,0,0,.1.5c1.1.1.8,1.3.8,2.2s-.4.5-.9.7,0,.9-.2,1.2l.3.2V266h.7c0,.2,0,.5,0,.7s.3,0,.3.2-.6.4-.8,1.2l.5.4.2,1.7H35c0,1.5,1.6,3.2,1.2,4.3l-1-1.4h-.4c-.5,3,1.6,4.6,2.4,7.3h-.4l-.2-1.2h-.5l.2,1.7h1.2c-.1.4-.2.4-.5.5.3,3.1.9,5.3-1.7,7.3-.1-.6-.1-1.1-.1-1.7h-.4c0,3.5.1,7,.3,10.6-.1.6,0,3.7-.8,3.7s0-1.1.1-1.6h-.4c-.3,4.3-.5,8.7-.7,13.1,4.5,1.7,6.1-2.8,10.3-3.9v.7a66.9,66.9,0,0,0-6.6,4.1,2.6,2.6,0,0,0,.1.6c3.3,1.5,7.1,2.7,10.1,4a20.2,20.2,0,0,1,1.3-8.6H49c-.4,1.7-2.1,8-1.1,9.1A2.9,2.9,0,0,0,50,317h.7a7.8,7.8,0,0,0-.5,2.7l-.4.2.2.4c4.3-3,15.1-5.2,20.2-3.3a15.6,15.6,0,0,1-.3,3.4c-2.7-2.1-15.7-1.8-16.7,2.3h-.4a2,2,0,0,0-.2,1.1c2.5.4,5.8-.9,8.8-.9,0-.2,0-.3,0-.4h.4l.3.9c.3,0,4.6.2,5.2-.5-1.1-.6-1.1-.6-1.1-.8h1.7l.5-.5c1.6.4,1.6,2.9,1.3,4.3l-1.4-.6-.2-1c-2.1-1.5-6.5-.2-9,.4l-.4.8c.7.1,2,.1,2.5.6a7,7,0,0,0-1.4,2.3,2.2,2.2,0,0,0,1.5-.5c0-.3,0-.6,0-.9l.9-.2c-.1.5-.3,1-.4,1.6l1.5.3c-3.1.6-5.9,1.8-8.9,2.9v.4h-1a26,26,0,0,0-1.5,3.2c-.2,0-.5-.5-.8-.6a9.4,9.4,0,0,0-1,3.1c-.5-.1-.8-.4-1.4-.4a50.1,50.1,0,0,0-.4,6.1c1.3,0,2-2.4,2.3-3.5h.5a11.6,11.6,0,0,0,.4-3.7l.4-.3c.1,1,.1,2,.2,3l.4-.2v-3.3h.5a10.8,10.8,0,0,0,.2,3.1c1.5-.3,2.3-.5,2.3-2.1h.4q0,.7,0,1.4a16.1,16.1,0,0,1,3.9-.3l-.5,1.9.4.4a50.5,50.5,0,0,1,9.3-.2v.6c-2.2.3-7.9-1.7-9.6.1l-6.2,2.3a2,2,0,0,0-.1.6,8.9,8.9,0,0,0,3.3.2l-.3,1.4h-.4c.1.8.2,1.7.4,2.6l-.7-.5-.2.8.4.2v.5c2.6,1.8,9.3-.3,12.7.2l-.2-1.2h-.5l-.2-.4.8-.3a8,8,0,0,0-.2-1.4l.3-.2.2-.8c.1,1.3.1,1.3-.3,9.1-2.1-.7-9.8-3.2-11.1-.6-3.1,0-1.9,24.8-2,27.2l.4.2-.5.7h.3a10.3,10.3,0,0,0,.1,1.2l-2.2.3c-.2,2.2-.3,4.4-.2,6.6,5.2-.5,11.8-1.8,16.9-.6l1.2-.4v-.9h.5v-.5h.5c0-.2,0-.3,0-.4h.3v.4H73V386h-.5c-.3-.5-.7-.5-1-.9a2.3,2.3,0,0,0,1.3-2.1l4.1,1.1a1.6,1.6,0,0,1,.1-.5,65.1,65.1,0,0,0-7.7-2c-.2-.5-.2-.5-.3-.5s0,.3,0,.5l-1-.5c.3-5.3-1.1-6.9-.9-14.1h.5c-.2-.5-.2-.5-.2-2.1h.9c-.2-.2-.2-.2-.7-.3v-.4H68l-.4-.8.4-.2c-.6-.8-.6-.8-1.1-1,.4-3.7,8.2-3.9,10.7-4.2v-.3h-.3c0-.2,0-.3,0-.4h.3l.6-2.8-3.4-.5v-.4h-.4l-.6,1.2a10.4,10.4,0,0,1,.1-1.2l-.7-.2,3.2-.5.2.4h.5l-.2-1.1.5-.3c0-14.2.2-25,.5-38.4l-.3-.2v-1.1l.4-.2v-3.7l-1.7-.6a1.4,1.4,0,0,1-.1-.4h1.8c2.4-3.1-4.7-3.5-6-3.4l-.2.7c-1.3.3-1.4,1.4-1.7,2.7-2.5-5.2,5.5-4.9,8.4-5.1a5.6,5.6,0,0,1,.3-1h.7a11.6,11.6,0,0,1-.1-1.3c-1-.6-2.3-.7-3.1-1.5a10.4,10.4,0,0,0,2.7-.3c.1-1-.4-2.9-.4-4.2-3.2-1.5-6.3-2.5-8.2,1.6,0-3.3,5.5-4.4,7.9-3.3.9-.6,1.1-.9.9-1.9l.6-.3.2.9,4-2.4c0-.1,0-.2,0-.3h.4c0,.4,0,.8,0,1.2s-4.1,1.9-3.6,3.5,2.5.7,2.7-1.1h.4c.1-.7.3-1.3.4-1.9.2,3.4-.8,5.5-1.1,8.3.9-.4,2.1-1.4,3.1-1.9l-.4-.3c.4-.9.4-.9.4-1.4h.3c0-.2,0-.4,0-.5l.6-.2c0-10.3,1.4-23.6-.4-33.7-1.8-1.2-2.3-.4-2.7,1.4-1.5-.1-1.2-1.1-1.7-2.3h.5v-1.4l-.4-.2c.4-1.7,2.9-2.2,3.8-3.4l.4.2c.1-1.7-.1-4-.3-13.2a2.5,2.5,0,0,0-1.8-.4c-.8,1.6-.7,2.6-.7,4.4-3,2.2-3,2.2-3.7,2.6s-.1-1.6-.1-2.4c1.6-1.1,2.7-1.7,3.3-3.5h.4c.5-1.5,1-1.4,2.4-1.6,0-5.3.4-11.1.3-16.6.3,3.5.3,3.5.6,4.6h.5c.4-1.5.8-5.7-.2-6.6s-.6.7-.8,1.6c-.1-1.1-.5-2.1-.6-3.1-2.1,0-2,.5-2.2,2.6l-.9-.5a13,13,0,0,1,.1-1.4l-.6-.2a3.8,3.8,0,0,1,.4-1.6c-1.7-.7,2.2-2.7,2.7-2.8a1,1,0,0,1,.1-.4h.7c-.2-8,.7-16.7-.3-24.4l-.6-.8H84.1a6.5,6.5,0,0,0-.4,2.6h-.5c.1-2.2.1-3,2.1-3.6a1.6,1.6,0,0,1,.2-.5l.2.7h.4l.2-.4-.4-.2.3-.5c-2-1.1-1.8-1.9-2.9,1.5-5.9,2.4-3.4,16.4-3.9,21.7Z" fill="#898989" fill-rule="evenodd"/><path d="M115.9,415.6c0-.5,0-.5.4-1.2h.4Z" fill="#fefefe" fill-rule="evenodd"/><path d="M81.2,411.2l-.3-.4.7-.5c0,.2,0,.4,0,.7Z" fill="#fefefe" fill-rule="evenodd"/><path d="M101.8,406.2a4.9,4.9,0,0,1-.1-2.5,6.6,6.6,0,0,1-.4-3c.1-.1.1-.1.5.2,8.6-.7,17.2-8.1,26-8.6-.4.9-1.1,1.5-1.4,2.4l-2.4.5a3.5,3.5,0,0,0,1.9-.2l-.2,1h-.4c-2,3.8-4.1,4.5-8.2,4.9l-.2.4c-2,0-6.3,2.6-8,2v-.3h-.4l-.2.6a14.9,14.9,0,0,1-3.4,1c0,.1,0,.2,0,.4a15.2,15.2,0,0,1-3.4,1Z" fill="#fefefe" fill-rule="evenodd"/><path d="M96.7,401.8l-.6-.5c.6-4.1-.5-9.1-.3-13.4a7.7,7.7,0,0,0,1.6-.1c.2,7.7.4,8.4.3,12h-.5c.1.3.1.3.3.4l.2-.2a.7.7,0,0,0,.1.3l-.5.2v1Z" fill="#fefefe" fill-rule="evenodd"/><path d="M45.9,399.6a17.1,17.1,0,0,1-.2-3.6c1.1.5,1.1,1.5,1.9,1.9a1,1,0,0,0,.1.4C46.3,399,46.3,399,45.9,399.6Z" fill="#fefefe" fill-rule="evenodd"/><path d="M55,399a26.8,26.8,0,0,1,.3-7.2c4.8-.2,12.7-1,15.8,3.6h.5a1,1,0,0,1,.3.8l2.1-.6c-.2.9-.3,1.9-.4,2.8s-1.2.8-2,.5c-.2-3,.2-3-2.4-3.4a4.7,4.7,0,0,0-.3.8c-1-.3-2.2.1-3-.3l-.7.4c1.8.3,1.7.5,2.3,2.1C64.5,397.6,57.6,397.6,55,399Z" fill="#fefefe" fill-rule="evenodd"/><path d="M67.8,398.9l.2-.7-.3-.2.2-.4,1.2.5C68.8,398.6,68.3,398.7,67.8,398.9Z" fill="#fefefe" fill-rule="evenodd"/><path d="M43.2,393c-.1-2.7-.5-5.8,2-6.8l.2.9-1,.3a13.5,13.5,0,0,0,0,1.4l.4.2c0,2.1-.4,2.3-1.6,4Z" fill="#fefefe" fill-rule="evenodd"/><path d="M105.9,391.4v-.3c-2-.8-1.6-7.4-1.7-9.3h-.4a1.6,1.6,0,0,1-.1-.5l.9-.3c.4-1.1.8-2.1,1.2-3.2h.4c.6-1.5,1.4-1.7,2.8-2.2l.2.3c2.8-.9,5.6-2.2,8.4-2.6,0,.1,0,.2,0,.3s.8-1.6,1.6-1.9,1.1,4-1.1,3.1c-.8,1.1.3,2.1.9,3.1h.7a3.7,3.7,0,0,0,.7,2.1h-.4a1.9,1.9,0,0,0-.1.6l-.6-.2c0,.1,0,.3,0,.4l4.1,2.2.2,2.1a9,9,0,0,0-3,.2c-.2-.6-.4-1.1-.5-1.7h-.4a5.9,5.9,0,0,0,.2,2.1c-4.1.5-13.3,4.6-13.6,4.7s.1.6.3.7Z" fill="#fefefe" fill-rule="evenodd"/><path d="M29.3,388.8a3.4,3.4,0,0,1,4.4-3.3c0,1.7-3.2,2.9-4.4,3.3Z" fill="#fefefe" fill-rule="evenodd"/><path d="M95.7,387.2l-.2-.5.7-.2c0-.2,0-.4,0-.5h-.7c0-2.5-1.7-8.3,1-9.2l.3-1.8c0,2.2,0,2.2-.2,2.4,1.4,1,.4,7.6,0,9.7l-1,.2Z" fill="#fefefe" fill-rule="evenodd"/><path d="M105.4,385.5c-.1-.9-.1-.9.1-1.4a12.9,12.9,0,0,0-.1,1.4Z" fill="#464545" fill-rule="evenodd"/><path d="M46.4,385.2c0-8.5.9-17,1.1-25.5a4.5,4.5,0,0,1,.3-.9h.6c0,1.5.1,5.4-.5,6.5l.3.2a1.3,1.3,0,0,0,.4-1.2c.4.1.5.5.9.5a1.9,1.9,0,0,0-.2.6h-.4c-.1,1.2.3,3.3-.5,4.1h.4l.2.9h-.4c0,.1,0,.2,0,.3l.6-.3v.5c-.6,0-.8.7-1,1.1l.3.3-.3.2c0,.1,0,.2,0,.4s-.4.2.5,0c0,1.7,0,3.3,0,5l-.3.2a3.5,3.5,0,0,1-.4,1.7c.4.3.4.3.6.7s-.6.6-.9,1.2a1.2,1.2,0,0,1,1,.3c-.1.4-.1.4-.4.6l.2.3-.8,1.5-.5.2-.2.7h-.4Z" fill="#fefefe" fill-rule="evenodd"/><path d="M89.8,377.2a36.6,36.6,0,0,1-.2-7.5c1.2.1,1.2.1,1.6.3a23.8,23.8,0,0,1-.2,4.4l-.8.5.8.3.2,1.3A1.3,1.3,0,0,0,89.8,377.2Z" fill="#fefefe" fill-rule="evenodd"/><path d="M83.1,374.8a40.9,40.9,0,0,0,1.8-6c.7.7-1,5.7-1.8,6Z" fill="#fefefe" fill-rule="evenodd"/><path d="M70.7,369l-.3-.2a7.3,7.3,0,0,1-.2-.9h-.3c-1.8-5.4-2.3-6,3-7.4,1.6,0,4.8.3,5,2.4l-.5.2.3.5h.4l.3-.5a3.3,3.3,0,0,1-.3,1.5c-.5-.1-.5-.1-.7-.3s-.3.3-.3,1.4l-2.2.4v.3c-1.5.3-3-.3-4.5-.2a7.5,7.5,0,0,0,.6,2.6l-.3.2Z" fill="#fefefe" fill-rule="evenodd"/><path d="M79.6,368.9a21.3,21.3,0,0,0,.1-3.5h.9c.3,1.5-.5,2.2-.7,3.6h-.4Z" fill="#fefefe" fill-rule="evenodd"/><path d="M85.2,367.3c0-.6-.1-1.2-.1-1.8l.4-.2.2-.8h1.4a6.9,6.9,0,0,1,.7,2.1l-1.7.2c-.3-.6-.3-.6-.7-.7l.4,1Z" fill="#fefefe" fill-rule="evenodd"/><path d="M94.8,366.6v-3.7l.9-.2v.7H96l-.2-1.1-.4-.2c.1-.4.7-.7.8-1s-.4-.2-.5-.5h.4l-.2-.4a2,2,0,0,1-1.2.1v-1l1.1.4.3-.3a56.4,56.4,0,0,1,.3,7.1h-.5l.2-.9H96v.4A1.4,1.4,0,0,0,94.8,366.6Z" fill="#fefefe" fill-rule="evenodd"/><path d="M88.5,365.4c.2-.9.4-1.1,1.2-1.4l-.2.9-1,.5Z" fill="#fefefe" fill-rule="evenodd"/><path d="M83.1,365.1a20.1,20.1,0,0,1,.1-3h.4c-.1.9.2,1.7-.3,2.4s.4.3.4.5l-.6.2Z" fill="#fefefe" fill-rule="evenodd"/><path d="M48.5,363.8a3.9,3.9,0,0,1,0-.7h.4v.6l-.4.2Z" fill="#fefefe" fill-rule="evenodd"/><path d="M86.6,363.1c0-.5,0-1,0-1.5H87l.3,1.6Z" fill="#fefefe" fill-rule="evenodd"/><path d="M86.5,359.5c0-.2,0-.4,0-.5l-.9.2c-.1-3.7-1-5.4-.2-8.7-.5-.3-.5-.3-.7-.7l.6-.2c-.1-5-.3-10.1.1-15.1,2.5-1.2,2.5-.1,2.8,2.5,0,7.3.1,14.7.1,22l-.7-.2v-.4h-.9a5.5,5.5,0,0,0,.1.9l-.4.2Z" fill="#fefefe" fill-rule="evenodd"/><path d="M98.5,358.6a3.8,3.8,0,0,1-.1-.7c.8-.4,2.3-1.3,3.2-1v-.4l1-.2a15.2,15.2,0,0,1,3.6-8.3,1.4,1.4,0,0,1-.1-.4l.5.2v.3l2.2-1.4c.1-.2.7.9.7.8l33.6-14.4c2.8-1.2,6.3.4,10.2,2,0,.2-26.6,11.7-28.2,12.3-4.8,3.7-15.2,6.4-20.9,8.7l-.2-.5c-.2.2-.2.2-.1.6h-.5c0,.1,0,.2,0,.4-1.5,0-3.5,1.4-5,1.9Z" fill="#fefefe" fill-rule="evenodd"/><path d="M126.7,351.2a3.3,3.3,0,0,0-.1.7l.3.3-1.1.6-.6-.2-.8,1c.4.2.3.5.3.8h-.6c-.4.7-30.9,8.9.3-2.5l.2-.4,2-.4Z" fill="#fefefe" fill-rule="evenodd"/><path d="M94.5,358.3c-.1-.9-.1-.9.1-1.1l.2.2a115.2,115.2,0,0,1-.7-12.5h.4v.3l.8.2-.3,1.2c.5-.2.7-.4.9-.9a83.2,83.2,0,0,1,.2,11.2c-.8-1.1-.8-1.1-1.1-1.3a24.9,24.9,0,0,1,.2,2.8Z" fill="#fefefe" fill-rule="evenodd"/><path d="M148.3,354.5c2.1-8.5,12.5-12.5,20.1-14.4.3-6.9-4.2-15-3.3-21.8l4.4-1.8a17.4,17.4,0,0,1,.8,3.8l-.3-.2-.3.3h.5c.3,1,.5,2,.8,3s-.7.4-.7,1a1.3,1.3,0,0,1,.9.2l-.2.4.5.2c-.6-4.1-1.7-8.3-2.2-12.3l-.4-.2a10.9,10.9,0,0,1-.2-1.1h.9c1.3,6.9,2.7,13.8,3.5,20.8h-.6c.3.7.3.7.5.7s0-.4,0-.5l.7.2c0-.7,0-1.5,0-2.1h1.1a7.4,7.4,0,0,1,.3,2.7,29.8,29.8,0,0,1,3.5,1.5c-.2.6-.3,1.1-.4,1.8h1.2c0,1.3,12.4.8,14,1.1A2.4,2.4,0,0,1,197,336c.4-.4-.8-4.1-.9-4.8a7,7,0,0,0-2.7.4,3,3,0,0,1-.2-.6,4.3,4.3,0,0,0-.1.8c-1,.4-1,.4-1.4.4s-.4-1.2-.6-1.9a36.7,36.7,0,0,1,4.6-1.5l-.2-.7-3.6.2a17.5,17.5,0,0,1-.9-3.7c2.9-.2,2.9-.2,3.6-.1s-.4-2-.5-3a22.1,22.1,0,0,0-8.1,1l-.3.6-.5-1c-.5.4-5.4.8-6.3.6a29,29,0,0,1-2-4.8c-.1.5-.2,1-.3,1.6h-.3c.4-4.9,5.4-2.4,4.5-8.2h.3l.3.6a5.6,5.6,0,0,0-.1-2.2l.4.2.6,2.5c1.3-1.8,2.4-.6,3.2,1.1H185v.3l.5.2c.4.9,6,2,7.5,2.1-2.1-9.1-2.1-9.1-2.4-9.8a21.2,21.2,0,0,1-4.5,6.2,3.8,3.8,0,0,1-1.6-1l.2-.3,1.5.2c3.1-3.9,4.6-5.5,3.4-10.8,1.3-4.2,10.8-9.5,13.4-4.8l-.2.4c.4.9.2,3.9,1.2,2.1l10.1,42,.5.3c-.8,1.6.2,2.1.8,3.3l-.6.3a4.7,4.7,0,0,0,.3.8c-.3.7.2,2.1.2,2.8s.6.4.7.9a14.8,14.8,0,0,1-9.2-.4c-16.8-16-51-4.3-52.5.1v-.4c-1.8,1-5.2,3.7-5.4,5.9h-.4c0,.2,0,.3,0,.5h-.3Z" fill="#fefefe" fill-rule="evenodd"/><path d="M23.7,353.8a4,4,0,0,1-.1-.8l.5.3a1.5,1.5,0,0,0,0,.5Z" fill="#fefefe" fill-rule="evenodd"/><path d="M98.5,351.9a10.3,10.3,0,0,1,.1-1.3,2.9,2.9,0,0,1,1.8.1v.6c-.7.1-.7.1-2,.7Z" fill="#fefefe" fill-rule="evenodd"/><path d="M126.7,351.2c1.2-1.2,8.5-4.1,10.7-4.3l-.2.5a70.8,70.8,0,0,0-7.5,3.3,30.5,30.5,0,0,0-3,.5Z" fill="#fefefe" fill-rule="evenodd"/><path d="M80.6,350c-.5-.3-.6-.9-.7-1.4h-.4c0-.2,0-.3,0-.4h1.2c0,.5.1,1,.1,1.6Z" fill="#fefefe" fill-rule="evenodd"/><path d="M138.3,346.6l-.2-.2a3.9,3.9,0,0,1,1.9-.7,1.9,1.9,0,0,0-.1.6C138.5,346.4,138.5,346.4,138.3,346.6Z" fill="#fefefe" fill-rule="evenodd"/><path d="M143.1,345.5l-.2-.5h-.4v-.5h.4l.5,1Z" fill="#fefefe" fill-rule="evenodd"/><path d="M143.6,344.9a7.6,7.6,0,0,1-.1-1l.4.2c-.2.8-.2.8-.4.9Z" fill="#fefefe" fill-rule="evenodd"/><path d="M144.8,344.6l-.6-.7c.7-.4,1.8-1.1,2.6-.8v.4l-.6-.2-.2.5h-1.2Z" fill="#fefefe" fill-rule="evenodd"/><path d="M148.1,343.9l-.6-.6h.8l.2-.5-.9-.2a1.4,1.4,0,0,1-.1-.4c1.1-.4,2.9-1.5,4-1.2v-.4l.9-.2a1,1,0,0,1,.1-.4c.7-.1.7-.1,1.1.1s-.5.6-.7.6v-.3h-.4a4.4,4.4,0,0,1-1.9,1.4l-.3,1.1-2.2.8" fill="#fefefe" fill-rule="evenodd"/><path d="M67.1,343.7l-.8-.3a5.3,5.3,0,0,1,2-.1v.4Z" fill="#464545" fill-rule="evenodd"/><path d="M142.9,343.4c-.2-.3-.2-.3-.2-.8l.6-.3a6.3,6.3,0,0,0-.4,1Z" fill="#fefefe" fill-rule="evenodd"/><path d="M98.3,326.9l.7-.2.2-.5,1.3-1.2c-1.4-1.9-2.8-2.6-3.2-5.2,2.3,0,3.9,2.3,5.8,3.3,0,.2,0,.3,0,.5,5,.3,9.5-3.6,14.6-4.6,2.1.3,4-.1,5.9.1q0,.4,0,.8a1.9,1.9,0,0,1-1.3-.4c0,.1,0,.2,0,.4,1.6.9,4.8,2,5.1,4l-1.6.2-.3.6h-.7l-.2.5c-2.3.8-20.1,8.7-20.8,10.7h-.4c.5,1,2.1,3,2.1,4a2,2,0,0,1-1.3-1.4h-.4c0-.2,0-.3,0-.4h-.5a5.8,5.8,0,0,1-.5-2.1l-1-.2c-.2-3.1-.7-5.8.1-8.8s1.1-1.6,1.2-2.1l-2.7.4c-.1.9-1,2.9-2.2,2.4Z" fill="#fefefe" fill-rule="evenodd"/><path d="M36.8,337.3l.9-.3.7.2v.5h-.4l-.3.4-.7-.3Z" fill="#464545" fill-rule="evenodd"/><path d="M55.9,335.7v-.8h.5Z" fill="#464545" fill-rule="evenodd"/><path d="M158.9,333.1c-.6-2-8.7-2.2-10.8-2l1.6-1-.7-.4,2.3-1c0,.2,0,.3,0,.5H151v.4l1.2-.4c0-.2,0-.3,0-.4h-.5l.2-.4c2.6,0,7.1-2,6.6,3.3h.3v-.5a6.5,6.5,0,0,1,2.4.9l-2.2.8Z" fill="#fefefe" fill-rule="evenodd"/><path d="M133.4,317.9c.5.6,1,.5,1.3,1.2s-.8-.3-1.2-.3a8,8,0,0,0-.1,1.1c-.8-.1-.8-.1-.9.1l-.3-.4v.3c-4-1.4-7-3.3-11.5-2.9l-.2-.3c2-1,4.1-1.7,5.9-2.4a73.3,73.3,0,0,0-15.3-6.9v-.4a8.2,8.2,0,0,1-2.6-1,1.3,1.3,0,0,1-.1-.4l-.7.2c0,.1,0,.2,0,.4a4.1,4.1,0,0,1,1.6.6,2.4,2.4,0,0,1-.4,1.4l-.7-.3c-.4.8-1,.8-1.7.9l-.2-3.3c.7,0,.7,0,.7-.2l-3.2-1.4a1.4,1.4,0,0,1-.1-.4h-.7c0-.2,0-.3,0-.4-2.1-.4-4.6-1.9-6.6-2.8v-.4H97c22.4,10.2,45.8,19.5,67.7,30.6-.1-.6-.1-1.1-.1-1.7h.4c.1,1.2.3,2.4.4,3.6l-.6-1.6c-.4-.1-1.9.7-2.5.7l.5-.3v-.6a24.4,24.4,0,0,0-2.7-1v-.5h-.7c0-.2,0-.3,0-.4-4.1-.6-8.2-3.8-12.2-5.2,0-.1,0-.2,0-.3C142.5,321.7,138.1,319.3,133.4,317.9Z" fill="#fefefe" fill-rule="evenodd"/><path d="M82.1,331.2h-.5v.7h-.5v.4l-.9-.2c-.2-3.2,0-8.8,1.2-11.8l.5.2a2.7,2.7,0,0,1-.1-.6h-.5l-.7-2.6,1.6.5.2.6h.3v2.2h.5a4.9,4.9,0,0,0-.1.9c1.8.7,1.8.7,2.1.7l.3-.7c-.4-.2-.4-.2-.5-.5l.7.2.2-1h1.5c1.1,2.5.6,6,.6,8.7h-.4v-.4h-.4c-.6,1.5-4.8,1-5.1,2.9Z" fill="#fefefe" fill-rule="evenodd"/><path d="M146.3,331.8c-.2-.6-.3-1.2-.4-1.8l.4.2A2.9,2.9,0,0,1,146.3,331.8Z" fill="#fefefe" fill-rule="evenodd"/><path d="M147.6,330.7c.2-.5.3-.5.9-.7v.5Z" fill="#fefefe" fill-rule="evenodd"/><path d="M50.2,329.8v-.4h-.4a4.2,4.2,0,0,1,.4-.8v.9Z" fill="#fefefe" fill-rule="evenodd"/><path d="M191.1,328.8c-.8-.6-.8-.6-1.2-.7v-.9c-.9-.2-.9-.2-1.2-.5a3,3,0,0,1,2-1.7A13.7,13.7,0,0,1,191.1,328.8Z" fill="#fefefe" fill-rule="evenodd"/><path d="M163.9,323.2c0,1.1.5,2,.4,3.2l-.7.2v.3h.9a4.5,4.5,0,0,0-.2.9c.4.2.4.2.4.3-2.1,0-4.2-1.2-6-2.2a5.9,5.9,0,0,1,3.3-1.4v-.4l2-.9Z" fill="#fefefe" fill-rule="evenodd"/><path d="M43.4,327.8a3,3,0,0,1-.2-.6c-.3.2-.3.2-1.2.1s0-.4,0-.6a16.6,16.6,0,0,1,2.4-.2q0,.5,0,.9l-1,.3Z" fill="#fefefe" fill-rule="evenodd"/><path d="M40,326.6a4.2,4.2,0,0,1-.1-2.5c-1.5.4-2.4,1.3-4,.7s-2-.7-1.7-2.3l.8-.3v-.6l-1.9.7v.4h-.4c-.2-2.9-.2-2.9-.1-3.3,2,0,10.4,3.8,12.6,5v.4a23.1,23.1,0,0,0-4.9,1.3,1,1,0,0,0-.1.4H40Z" fill="#fefefe" fill-rule="evenodd"/><path d="M212.3,260.9c6.2-2.6,3.1-2.1,9.6-3.3l3.4,9.9c-1.2,4.3,2.4,9.1.9,11.2,0,.2,0,.3,0,.5s.6.3.7.8l1.5-.3c0,1.5-.3,2.6.4,4h-.7c-.4.6-.5.8-1.2.9a1.1,1.1,0,0,0-.2.4l-.3-.4c0,1.8.6,3.1.5,5.2h.4c-.1,1.1.4,3.1,1.5,3.5v.7c1,.3,1.8.5,2.2-.7a5,5,0,0,1-2.6-1.5c0-1.3,1.2-2.1,1.9-3.1h.4a2,2,0,0,1,.1-.6H232l9.9,29c-.4,1.2-13.4,6-13.9,6.2h-1a228.8,228.8,0,0,1-7.4-24.3,3.8,3.8,0,0,1-.3-2.1c1-.7,1-1,1.2-2.2a4,4,0,0,1,1.7-.5c-.1-.8-.2-1.6-.2-2.3a4,4,0,0,0-2.2,1l-1.6-.6q0-.6,0-1.2l.6-.2-1-2.8h-.7v-2.7l-.3-.2h.3v-.4l2.5-1.6.2-.8h.4l.2-1-.7.6v-.3h-.5v.4Z" fill="#fefefe" fill-rule="evenodd"/><path d="M163.9,323.2a7.4,7.4,0,0,1-.5-2.6,8.8,8.8,0,0,1,.5,2.6Z" fill="#fefefe" fill-rule="evenodd"/><path d="M212.8,319.3l-2.8-.8-3.7-15.7c1.4-.5,2.2-2.1,4.2-2.4,0,.3,0,.7,0,1l-2.7,1.2c0,.2,0,.3,0,.5l.9.3c1.6,5.2,3,10.4,4.4,15.7l-.3.3Z" fill="#fefefe" fill-rule="evenodd"/><path d="M160.4,307.6a1.9,1.9,0,0,1-.9-.8l-.5.3c0-.3,0-.5,0-.7h-.4c.4,2.6.2,2.6.2,2.2l-17.5,7-.5.2c0,4.3,0,.5-2.2.7v.4c5.2,0-7.9-2.6-11.1-4.5h.6a2.6,2.6,0,0,0-.2-1.6h.4l.7,1.7,2.2-.7.2-.8c4.5-1.3,25.7-13.2,28.4-13.8,0,2.8.9,5.6.9,8.5l.4-.2v.6h-.4l.2,1h.4v.4c-.5.1-.5.1-.5.3Z" fill="#fefefe" fill-rule="evenodd"/><path d="M133.4,317.9l-2.5-1.1C131.7,316.8,133,317.1,133.4,317.9Z" fill="#464545" fill-rule="evenodd"/><path d="M129.9,316.3l-1.9-.9.2-.3c2.4,1,2.4,1,2.4,1.2h-.7Z" fill="#464545" fill-rule="evenodd"/><path d="M167.1,312.5a10.6,10.6,0,0,0,0,1.2l1.1-.7c.5.3.5.3.7.7l-4.2,1.7c-.1-.6-.3-1.2-.4-1.9a11.2,11.2,0,0,1,2.9-1Z" fill="#fefefe" fill-rule="evenodd"/><path d="M79.2,314.6A23.1,23.1,0,0,1,79,310c.6-.3.6-1.4.7-2h-.7c0-2.4-.8-4,1.2-5.4.2.3.2.3.3,4.7h.5l-.2,1.2-.4-.2a4.8,4.8,0,0,0-.1,2.2h.5c.2.6.2.6.1,1s-.2,0-.5-.7C80.5,312.2,80.7,314,79.2,314.6Z" fill="#fefefe" fill-rule="evenodd"/><path d="M94.7,313.9l-.2-2.6h.3l-.2,2.6Z" fill="#fefefe" fill-rule="evenodd"/><path d="M82.7,308.7l-.4-.2a7.3,7.3,0,0,1-.3-2.2l.9-.6c2.2.7.5,5.7,0,7l-.7.2C82.3,310.9,82.6,309.9,82.7,308.7Z" fill="#fefefe" fill-rule="evenodd"/><path d="M86.3,312.7l-.2-2.6-.5.2-.4-1.1-.4.5c-.3-.2-.3-.2-.3-.9l.4-.2.2-.7c2.8,0,2.7,1.2,5,2.2a4,4,0,0,1-.1,1.8c-.1-.7-1.6-2.9-2.3-2.9A10.6,10.6,0,0,1,86.3,312.7Z" fill="#fefefe" fill-rule="evenodd"/><path d="M150.8,243.3v-4.3l-.9.2-.7-5.3.9.5c.2-2-1.4-6.9-1.7-9.4,1.4-.4,2.7-1.6,3.9-2.4a2.6,2.6,0,0,0-.2-1.5c-1.4,0-2.5,1.7-3.9,2-.4-2.1,1-5.3,3.7-4.6,5.8,29.6,11,59.4,17.2,88.9-.1.9-.5,1.7-.6,2.2l-2.4.4.3.5h-1.2a11.6,11.6,0,0,0,.2,1.2h-.4c-.3-1-.6-.9-1.4-1-.7-3.7-2-7.9-2.1-11.7l-.5-.3-2.6-16.7h-.7v-.3l.4-.2Z" fill="#fefefe" fill-rule="evenodd"/><path d="M93.1,309.9V309h.4v.9Z" fill="#fefefe" fill-rule="evenodd"/><path d="M172,307.6c.8-.6,2-1.7,3-1.4s0,.4,0,.6l.3.2-.4.3c.6.3.6.3.9.2s0-.4,0-.5h-.3a10.6,10.6,0,0,1,0-1.2c.5-.3.5-.3.9-.2s.6-.7,1.2-.8a8,8,0,0,1,.1-1.1c.8,1.1,1.6.4,2.8-.1s4.1-1.9,5.5-2.1l-.2,1-.8.3.6.2a1.2,1.2,0,0,1-1,.7v.5l-.8-.2a1.7,1.7,0,0,1,.3-.5l-1.2.4a5.6,5.6,0,0,0,.2.7h-.8a2,2,0,0,0-.1.6l-.9.2c0,.4,0,.4-.1.4s-.3-1-.4-1.6h.5c-.2-.8-.2-.8-.4-.8l-.2.6-1.1.3-.2.4.8.2.3.6H180c0,.4,0,.4.2.5a9.3,9.3,0,0,1-3.6,1.2c-.3.5-1.7,1.5-2.3,1.3s-1,.7-1.6.9-.2-1.1-.8-1.6Z" fill="#fefefe" fill-rule="evenodd"/><path d="M82.7,308.7v-.3l1-.4c0,.2,0,.3,0,.5Z" fill="#464545" fill-rule="evenodd"/><path d="M160.4,307.6a1.7,1.7,0,0,1,.2,1H160a6.3,6.3,0,0,1,.4-1Z" fill="#fefefe" fill-rule="evenodd"/><path d="M93.1,308.3a4.4,4.4,0,0,1,1.3-3.3c0,1,.1,2,.1,3Z" fill="#fefefe" fill-rule="evenodd"/><path d="M97.3,307.8c0-1.4-.6-2.8-.7-4.2a4.7,4.7,0,0,1,2.3,1A5.1,5.1,0,0,1,97.3,307.8Z" fill="#fefefe" fill-rule="evenodd"/><path d="M113.1,305.9l-3.9-1.7v-.4c14.2-8.1,28.6-16.1,42.9-24a9.3,9.3,0,0,0,3.7-1.9,8.9,8.9,0,0,0,.2,1h.4l-.2,2.8c.2,0,.2-.3.4-.3v1.2l-1.4,2.3-.6.2c0-.6-.5-.6-.5,0l-38.3,19.8c-.2.7-1.3,1-1.9.8l-.3-.5c-.2.2-.2.2-.1.9h-.3Z" fill="#fefefe" fill-rule="evenodd"/><path d="M93.3,303.3a3.8,3.8,0,0,1-.1-.7c.8-.4.8-.4,1.1-.4s0,.9-1.1,1.1Z" fill="#fefefe" fill-rule="evenodd"/><path d="M96.3,303.3l-.2-.9c.5.2.7.2.9.7l-.7.2Z" fill="#fefefe" fill-rule="evenodd"/><path d="M143.1,282.3c-9.3,5.1-27.6,14.9-36.6,20.5l-.8-.3c1.2-.4,2.1-2.8,3.9-3.4-.1-.9-.1-1.7-.1-2.6a5.6,5.6,0,0,1,.6,1.9c1.4-.6,3.1-1.5,4.5-2.2s3.7-2.1,6-3.5l.2-.7.8.3c4.4-2.4,12.1-5.4,17.7-10.3l-.2-1h.4v.9c1.8-.7,4.8-2,5.7-3.9.4-.1.6.2,1.3.1s-.2-1.4-.2-2.1h.3c.1.6.2,1.1.4,1.8,6.6-3.9,6.6-3.9,7.9-4.4a6.1,6.1,0,0,1,.1-.9c.1.6.3,1.2.4,1.8a2.8,2.8,0,0,0-2.6,2.1c-2.6,2.7-7.6,2.8-9.7,6Z" fill="#fefefe" fill-rule="evenodd"/><path d="M85.1,302.6c-.4-2.2-1.1-6.3,2.4-4.9,0,1.4,0,2.8,0,4.2l-.9-.2-.2.5-1.4.4Z" fill="#fefefe" fill-rule="evenodd"/><path d="M88.1,302.4v-.3l.4-.4.8.2-.2.3c-.7,0-.7,0-.9.2Z" fill="#fefefe" fill-rule="evenodd"/><path d="M93.5,301.9a1.9,1.9,0,0,1,.1-.6l.7-.3-.2.7-.7.2Z" fill="#fefefe" fill-rule="evenodd"/><path d="M205.8,281.8c.6,2.8.6,2.8.5,3.6l-.9-.2-1.1-2.7h-.4l-.3-.8c-3.1-1.6-1.4-8.3-4.2-9.2,0-.2,0-.3,0-.4h-.7a6.4,6.4,0,0,0-.3.9l.3.2-.2.6a1,1,0,0,1,.5.7h-.4v.3c-5.3.1-12.9.6-15.4,6.5l-.4.2c.2,1.5.8,3.6,2.2,4.2a1,1,0,0,0-.2.4h-.4a3.2,3.2,0,0,0-.1.7H184a3.4,3.4,0,0,1-.4,1.7h-.4l-.2-.5c-1.5,1-5.5,8.2-7.5,7.9a1.1,1.1,0,0,0-.2.4c-3.6-1.6-6.2-9.3-2.2,5.6-11.6-5.9,6.8-20.6,9.8-25.7h.3c0-.8.1-1-.3-1.7a47.9,47.9,0,0,0-7.4,3.7c-.1-.2-.1-.2-.1-1.2s2.8-2,3.3-2.7l-1.9.4a2.9,2.9,0,0,0-2.1-2.6l-.5-1.5h-3.1l-.3.3-.2-.3h-.4a4.1,4.1,0,0,0-.1.8l-1.8.3a10.7,10.7,0,0,1-1.8-5.3c3.2-.9,3.1-1.3,4.8-4.4l2.1.2.2,1.1-.6.2,7.5,1.1-6.1-26c-1.3,4.1-9.2,14.8-11.3,7.9l-.5-.2-.5.3a2.7,2.7,0,0,1,.1-.6h.6v-1.2c-2.9,1.5-.1,6.3.2,8.8h-.4c-3.9-13,0-5,5.8-13.4.3-2.8.2-4.6,2.4-6.4,0-.2,0-.3,0-.4h.4v-.3l1.5-.5c-2.6-7.4,4.1-15.1,11.3-9.1l9.7,37.9,1.7,6.8,1.5,3.3.5-.3-.4-2.1c.8-.4,3.3-2,4.1-1.8l1.8,6,.4.2-.8-3h.4l.2.7.6-.2v.5l.4.3-.3.5c.2.5.2.5.5.7l-.6.9h-.5c.3,1,.5,2.1.8,3.2h.5a9,9,0,0,0,1.1,5.1Z" fill="#fefefe" fill-rule="evenodd"/><path d="M205.7,300.3c-.7-2.1-.4-2.6,0-4.8a3.7,3.7,0,0,1,1.8-.7c-.4.5-.7.7-.7,1.4l.8.3a6.9,6.9,0,0,1,.5,2.7,7.8,7.8,0,0,1-2.4,1.2Z" fill="#fefefe" fill-rule="evenodd"/><path d="M72.2,299.8c0-.1,0-.2,0-.3l2.2-.5c0,.1,0,.2,0,.3l-2.2.5Z" fill="#464545" fill-rule="evenodd"/><path d="M83.7,299.3l-.2-.5,1-.2a1.3,1.3,0,0,1-.9.7Z" fill="#fefefe" fill-rule="evenodd"/><path d="M80.6,299.1c0-1.8.6-2.9.9-4.5,2.2.8.7,3.9-.9,4.5Z" fill="#fefefe" fill-rule="evenodd"/><path d="M94.2,299l-1.2-.7-.2-1.2h.9l.3-.6h.3l.2,2,1.9-.8.2.7a2.7,2.7,0,0,0-2.3.7Z" fill="#fefefe" fill-rule="evenodd"/><path d="M56.3,288.9c-.8.3-.6.7-.7,1.4h.9v-.4c3.4-.3,12.1-2.2,14.4-.4v2.7c-7.5-2-15.5.4-19,5.1l-.7-.9-.2,1a7.1,7.1,0,0,1-.1-4h.4c.5-1.4,2.4-1.6,2.7-2.6l1.1-.3.2-.4c-.4-.2-.4-.2-.5-.5l.7-.4c-.2-.3-.2-.3-.6-.4s-.5,1.1-.7,1.8l-.5-.2-.3.3c-.1-.5-.2-.9-.2-1.3s-.5.1-1.4.6c.5-1.9,4.7-3.4,6-3.8a3.6,3.6,0,0,0-.5,1.6h-.9a2.1,2.1,0,0,0-.3,1.1Z" fill="#898989" fill-rule="evenodd"/><path d="M87.6,296.7l-.2-.7.9.5Z" fill="#fefefe" fill-rule="evenodd"/><path d="M92.6,296.2l-.2-8.6a1.8,1.8,0,0,0,1.1-.8c.6.6.4,2.2.4,3.1h-.8a8.1,8.1,0,0,0-.1,1.1h.4a1.9,1.9,0,0,1,.1-.6H94l.3,5.7H94a8.6,8.6,0,0,1-.2-1C93.3,295,93.3,296,92.6,296.2Z" fill="#fefefe" fill-rule="evenodd"/><path d="M87.8,295.8l-.2-.7,1.5-.3a6.4,6.4,0,0,0-.3,1c-.4-.4-.7-.3-1.1,0Z" fill="#fefefe" fill-rule="evenodd"/><path d="M188.4,295c-2.6-8.5-5.4-13.9,3.5-17.3,4.2-.2,6.8,0,8.2,4.6.4-.2.5-.5,1.2-.7l-.2.7h-.4v.3h-.5c.3,1.5.6,2.9.9,4.4h.5a8.4,8.4,0,0,0-.2,1.2h-.3c.2,1.4.2,1.4.1,1.9a13.6,13.6,0,0,1-3.4.6c-.2.4-.4.6-.3,1.1h-.4l-.2,1h.6a1.9,1.9,0,0,0-.1.6,10.6,10.6,0,0,0-2.7.5c0-.1,0-.2,0-.3l.6-.4a1.1,1.1,0,0,0-.3-1l-.5.6h-.4a3.7,3.7,0,0,0,.3,1.3H194l-.2.4c-1-.4-.8-1.2-1.7-1.8v-.3l.6-.4a3.6,3.6,0,0,0-3.4,2.3H189l-.6.5Z" fill="#fefefe" fill-rule="evenodd"/><polygon points="125.3 293.6 125.2 292.7 131.4 289.5 131.7 289.9 125.3 293.6" fill="#fefefe" fill-rule="evenodd"/><path d="M111.1,275l10.2-6.3.7.6h.5l.3-.7,1.9-.7c0-.4,0-.7,0-1h.3v.4l.4-.2c-6.7,7.3-3.6,4,1,.2,2.1-3.6,20-11,24.5-15.6-.1-1-.2-2-.2-3h.4c.7,2.5,1,5.2,1.5,7.9h.4l.2-1a11.5,11.5,0,0,0,.4,1.3l-.8.3c-.1.6-.1.6.8,5.1l-.4-.2c-.3-.9-.5-1.9-.7-2.8l-.6.4a3.9,3.9,0,0,0,0,.7l-1.4-.2a.4.4,0,0,0-.1.3l.4.3a2,2,0,0,0-.1.6h.9l-.6.2c0,.1,0,.2,0,.3h-.4c0-.1,0-.2,0-.3s-1.2-.3-1.6-.3a4.1,4.1,0,0,0,.1.8c.5.7-24.1,13.6-25.8,15.2a2.1,2.1,0,0,0-2.1,1.9l-.3-.2-.7.3c0,.1,0,.2,0,.4h-.7c0,.2,0,.3,0,.5l-.7.2c0-2,.6-3.4.9-5.2l-1.5.4c0,.2,0,.4,0,.7s-.7.5-1,.7v-.3h-.4l-2.3,5.6-3.7,2.3-6,4.2-.6-.2v.7l-.7.2.2-.7a3.1,3.1,0,0,1-1.4.4l-.2.5-.5.2.7,1.7a1.8,1.8,0,0,1-1.3-1.4c3.2-3.9,5.7-9.4,8.3-13.7Z" fill="#fefefe" fill-rule="evenodd"/><path d="M78.4,291.2a5.6,5.6,0,0,1-.2-.7l.7-.3.3-9.9c2.1-2.1-1.3-13.5.8-15.6,1.1,8.1.6,16.8.6,24.9l-.4.2v.4C79,290.3,79.1,290.3,78.4,291.2Z" fill="#898989" fill-rule="evenodd"/><path d="M88.3,289.8l.5-.9h.4l-.3.9-.6.2Z" fill="#fefefe" fill-rule="evenodd"/><path d="M138.3,285.1l.7.4-.2.7-.6.4-5.9,3h-.3l6.2-4.1Z" fill="#fefefe" fill-rule="evenodd"/><path d="M81.6,288.9V288c.4.1.4.1.5.5l-.7.3Z" fill="#464545" fill-rule="evenodd"/><path d="M88.1,287.7a5.9,5.9,0,0,1,.1-.9l.8-.3C88.8,286.9,88.6,287.5,88.1,287.7Z" fill="#fefefe" fill-rule="evenodd"/><path d="M17.2,287.5c-.2-.3-.2-.3-1-.6a17,17,0,0,1,2.8-.6c0,.2,0,.4,0,.7H17.7c-.2.4-.2.4-.5.5Z" fill="#464545" fill-rule="evenodd"/><path d="M99.8,286.1c-.4-3,.7-4.6,3.5-5.4-.9,1.8-2.6,3.6-3.2,5.4h-.4Z" fill="#fefefe" fill-rule="evenodd"/><path d="M93.6,285.4l-.2-.3h-1v-2.4l1.3-.2c0,.8,0,1.7.1,2.6l-.3.2Z" fill="#fefefe" fill-rule="evenodd"/><path d="M96.7,284.9a2.5,2.5,0,0,1-.2-1.5l2.2-.6-.2.4-.8.3a3.1,3.1,0,0,0-.1.7H97C96.9,284.7,96.9,284.7,96.7,284.9Z" fill="#fefefe" fill-rule="evenodd"/><path d="M88,284.2c-.2-7.4-.7-15.1-.2-22.5.3-.3.3-.3.9-.3,0,5.3,1.9,21.6-.7,22.7Z" fill="#fefefe" fill-rule="evenodd"/><path d="M45.4,265.7c.6-1.3,2.1-1.4,3.4-1.8v-.3H49l.2.6c4-1.6,5,0,10.3-4.1,0-.2,0-.4,0-.6-2.3-1.2,2.4-3.7,2.9-4v-.3l2.4-1.6a1.8,1.8,0,0,0-.5-1.3c-3.7,0-12.7,10.6-14.7,10,0-2.9,9.4-8.3,10.5-8.7s0-.3,0-.4l2.9-1.9c0-3.3-6.2-9.8-9.4-9.8l-.4.9h-.3c0,.4,0,.4-.2.4l-.2-.8c-.9.2-1.2.8-1.7,1.6h-.3c.5-2.1,2-5.4-1.1-6l.2-.8c.7-.2,1.4.3,2,.6a2.7,2.7,0,0,0,.5,1.8c1.8,0,2.2-2.2,3.8-2.8-.3,1.3-1.6,1.9-2,3.2,2.1,2.1,10.8,8.4,13.7,8.4l3.4-2.5v1l-.4.2c0,.1,0,.2,0,.4s-2.1,1-2.1,2l1.2.8,1.2-.4.3,5.7c-2.6,1.5-2.5,1.4-1.7,3.9h-.4l-.8-1.3c-1.8,0-3.4,1.5-4.9,2.5v.4c-3.5,1.1-6.9,4.6-10,6.9,0,1.2,10.4,6.1,12,6.9,2.2-1,.5-8.4-2.7-6H61l-.2-.5-.5.4-.4-.4a12.7,12.7,0,0,0,.5-4.4c.9.4.4.9,1.7.6l.2-.9h.5a4.4,4.4,0,0,0,2.4,3.4c.2,1.6,1.5,3.1,2,4.8s2.6-.6,4.1-.2a34.7,34.7,0,0,1,.2,4.6c-1.2-.7-4.1-3.9-4.1-.9l2,1.6-1.1.5c-.2,1.1.2,2.2-.3,3.2-3.5,0-5.8.8-6.5,3.8l-.4.2-.2-1.2c-.8-.4-.5-1.2-1.7-1-1.3-1.8-7.5-12.3-9.6-11.8a14.5,14.5,0,0,0-.9-4.7c-1.1,0-2.3-.4-3.2.4Z" fill="#898989" fill-rule="evenodd"/><path d="M90.5,283.5a8,8,0,0,1-.1-1.1c1.3-.8,1.3-.8,1.9-1s-.1-3.2-.1-4.8.3-.2.8-.2l.3-.9h.4l.2,4.5.5.2c0,.2,0,.4,0,.6l.4.2v.4l-1.2.2a2,2,0,0,0-.3-1.4A3.5,3.5,0,0,0,93,282c-1,.5-1.6,1.2-2.5,1.6Z" fill="#fefefe" fill-rule="evenodd"/><path d="M98.3,281.3l-.5-1.1h-.8l-.3-.6H96v.7l-.7-.2v-.5h.4l-.2-3c1.6.3,5,3.4,5.3,4.9H98.3Z" fill="#fefefe" fill-rule="evenodd"/><path d="M233.5,278.8l-.3-.5h-.5c-.2-.7-.3-1.5-.4-2.2h.3c2.2-4.3,6.2-2.9,9.6-3.3l-.5,1.2h.6c-.1.3-.4.4-.4.7h.3C241.2,276.3,235.6,277.5,233.5,278.8Z" fill="#fefefe" fill-rule="evenodd"/><path d="M31.9,276.9v-1.2l.4.2.3.9Z" fill="#fefefe" fill-rule="evenodd"/><path d="M92.1,275.9c0-4.4.8-8.1.9-12.5.2,2.7,1.8,12-.9,12.5Z" fill="#fefefe" fill-rule="evenodd"/><path d="M179.1,273.8c.2-.5.5-.5.6-1.1a9.2,9.2,0,0,0,2.9-.5v.5A8.2,8.2,0,0,0,179.1,273.8Z" fill="#464545" fill-rule="evenodd"/><path d="M159,272.9c-.2-.3-.2-.3-.2-.9s1-1.2,1.6-1.4a3.6,3.6,0,0,1-.5,2.1l-.9.2Z" fill="#464545" fill-rule="evenodd"/><path d="M231,272.9c0-1.4.1-2.1,1.5-2.6s6.5-3.2,7.6-2a1,1,0,0,0-.1.9c-2.6,1-6.6,3.2-9.1,3.6Z" fill="#fefefe" fill-rule="evenodd"/><path d="M100.7,270.7c-.4-.3-.4-.3-1.2-.3l-1.3-6.8,22-14.4v-.7h.8l.2-.4,1-.2.5-1,.9.3-8.3,14.4h-.4l-.3-.5-2.6,2.1-9.9,5.7-.5.2v.7l-.7-.2-.2,1Z" fill="#fefefe" fill-rule="evenodd"/><path d="M60.6,270.3a3.1,3.1,0,0,1,.2-1.7c.1.3.1.3-.2,1.7Z" fill="#464545" fill-rule="evenodd"/><path d="M207.7,269.6a1.3,1.3,0,0,0,.1.4l-.7.2v-.4Z" fill="#fefefe" fill-rule="evenodd"/><path d="M205.8,270.1l.3-.6-.7-.4c.4-.4.4-.4.8-.4s.4.6.5,1.3l-.9.2Z" fill="#fefefe" fill-rule="evenodd"/><path d="M207.7,269.6v-.3H207v-.4h.6l.3.8Z" fill="#fefefe" fill-rule="evenodd"/><path d="M209.2,268.6c-.3-.4-1-.6-1.3-.7l.7-.3c.1.3.1.3.6.4l.3-.2c.1.3.1.3-.2.8Z" fill="#464545" fill-rule="evenodd"/><path d="M154,268.3c-.1-.7-.1-1.4-.2-2h.4c0,.6.1,1.2.1,1.9Z" fill="#fefefe" fill-rule="evenodd"/><path d="M229.4,268.1l-.2-.2h-1.2c0-.2,0-.4,0-.5h.5c0-.2,0-.3,0-.4l-.7-.2c-.2-.5-.3-1-.4-1.5s.8-.7,1.3-.8a1,1,0,0,1,.1-.4h.4v-.7l-.9-.2v-.4l.5-.2L214.4,220l7.2-.5h.4v.4l.4.2,1.5,2.3v.5l-.6-.2v.7h.5v.8h.3l12.3,35.4V261c1.1.1,1.9.4,2.9.5s.4,2.6-.2,3.1a55.9,55.9,0,0,0-9.8,3.4Z" fill="#fefefe" fill-rule="evenodd"/><path d="M153.5,265.5c-.2-1-.4-2-.5-2.9h.4c.1.9.3,1.9.5,2.8h-.4Z" fill="#fefefe" fill-rule="evenodd"/><path d="M158.2,264.4l-.4-.3a3.4,3.4,0,0,1,0-.7h.7a4.3,4.3,0,0,0-.1.8Z" fill="#464545" fill-rule="evenodd"/><path d="M79.6,264.1c.2-4.8-7.2-6-8.4-1.2-.8-.4-.7-1.6-.4-2.3h.4l.5-.6c.5,0,.5,0,.6.2a2.6,2.6,0,0,1,.3-.7,22.2,22.2,0,0,1,6.9-.7q0-.8,0-1.6h.3l-.2-.8-1-.4c0-4.5.3-4.9.4-6.9h.3c-.8-4.1,1.3-15.5-6.7-11.3a5.1,5.1,0,0,0-1.4,2.8c0-6.3,6.8-1.2,7.6-5.4h.4l.2.6c1.8-.6,2.9-2.5,4.7-3.1a2.4,2.4,0,0,0-.1,1.7l-.3.3-.4-.6c-.2.4-.2.4-1.4,1s0,.2,0,.4-1.6.8-1.6,2.1,1.3-.7,2.3,0a3.4,3.4,0,0,1-1.8,1.7c-1.9,5.4-.7,12.3-.4,17.9,2.1,1.6,1.3,4.4.9,6.8h-.5v-.7h-.5l-.2.9h-.4Z" fill="#898989" fill-rule="evenodd"/><path d="M92,263.4a32.3,32.3,0,0,1-.2-5.9l1.1-.2a25.2,25.2,0,0,1,.3,4.7l-.7-.2v.5c.7.2.7.2.7.3l-.4.2c0-.3,0-.3-.1-.3l-.4.8Z" fill="#fefefe" fill-rule="evenodd"/><path d="M176,262.7c-.1-.8-.2-1.5-.2-2.2h.7a1.4,1.4,0,0,0,.1.4l.6.2c0,1.2-.1,1.4-1.2,1.7Z" fill="#fefefe" fill-rule="evenodd"/><path d="M195.2,261.8c0-2.3.7-4.6,1-6.9a2.4,2.4,0,0,1,1.9-.4c1.2,4.2,2,5.9-2.9,7.3Z" fill="#fefefe" fill-rule="evenodd"/><path d="M241.5,261.3c-2.9-2.3-7.9-19.1-9.1-23.9h.4a4.3,4.3,0,0,0,.1.7l.4.2a104.2,104.2,0,0,0,5.5,15.3c1-1.1,1.2-.3.2.2s0,.3,0,.5h.8l.4,1.1c-1.2.2.7,3.5,1,4.4l.4.2c0,.4,0,.9,0,1.4Z" fill="#fefefe" fill-rule="evenodd"/><path d="M153.5,261c-.1-1-.3-2-.4-3h.7c-.5.7.1,2,0,3h-.4Z" fill="#fefefe" fill-rule="evenodd"/><path d="M157,260.6l-.4-.2a6,6,0,0,1,0-.9c.7-.2.9-.9,1.6-1a2,2,0,0,1-1.2,2.1Z" fill="#464545" fill-rule="evenodd"/><path d="M84.6,258l-.4-.3c.5-.4.5-.4,1.7-.6s0,.5,0,.7a2.2,2.2,0,0,0-1.4.2Z" fill="#fefefe" fill-rule="evenodd"/><path d="M91.6,256.8a53.4,53.4,0,0,1,.7-9.6h-.7a7.9,7.9,0,0,1,.1-1.1l.4-.2h-.3a3.1,3.1,0,0,1,.2-.7h-.5c0-.3,0-.5,0-.7l.7-.2c-1-1.8-1.1-2.4-1.1-4.7.7-.4.8-.5.9-1.4l-1.1.4v-6.7c1-.6.6-3.5.6-4.6h.4c.2,6.2-.4,15.1,1,20.9h.7l-.5.3C92.8,251,93.8,255.6,91.6,256.8Z" fill="#fefefe" fill-rule="evenodd"/><path d="M88,255.8c0-.2,0-.3,0-.4h-.7c-.3-6.6-.3-6.6-.2-11.7.2-.2.2-.2.7-.2,1.2,1.6,1.4,10.4.5,12.3H88Z" fill="#fefefe" fill-rule="evenodd"/><path d="M153,255c0,.2,0,.3,0,.5a2.8,2.8,0,0,1-.5-1.4h.4l.2.8Z" fill="#fefefe" fill-rule="evenodd"/><path d="M122.5,255.4c1.6-4.2,4.4-8.2,6.7-12l13.1-8.8.2-1h.4c.4,2-1.5,1.6-1.2,3.3l-1.3,1c.7.5,5.6-5.3,6.8-5.9s0-.3,0-.4h.4a51.6,51.6,0,0,0-1.4-9.2h.5c.9,6.1,2.2,12.2,3,18.4h.4a2.5,2.5,0,0,1,.6,2.2c-.3-.3-.3-.3-.5-1.7s-.1,1.9,0,2.3l-.4-.2-.8-3.7-.7-.8v1.8l-6.9,4.9-.7-.2c-.5-.5-1.2-.1-1.7.1l.9-5.6-3.5,3.6h-.5l-10.6,11.7Z" fill="#fefefe" fill-rule="evenodd"/><path d="M210,254.5c-1.5-1-3.2-3.4-2.7-5.5,2.1-1.1,8.1-5.2,10.3-4.8.5,1.6,2.1,4.7,1.8,6.3-3.1,1.1-6.3,3.1-9.4,4Z" fill="#fefefe" fill-rule="evenodd"/><path d="M100.5,254l-2.6-5.5-.2-.4.5-1.8,37.2-25.1,4.2-1.1-4.9,8.7c.2-3-.7-.7-1.5.3s-26.3,17.8-32,21.5l-.2.5h-.3l-.3.9h-.5Z" fill="#fefefe" fill-rule="evenodd"/><path d="M153,253.3a14.1,14.1,0,0,1-.4-1.4l.4.2c0,.4,0,.8,0,1.2Z" fill="#464545" fill-rule="evenodd"/><path d="M156,253.3c-.3-.5-.3-.5-.2-.9l1.2-.2c-.3.5-.3.5-1,1Z" fill="#464545" fill-rule="evenodd"/><path d="M65.3,252.6a3,3,0,0,1-.4-1.7c1.7-1.4,2-1.8,3.9-.8-.4,1.3-2.3,2.1-3.5,2.4Z" fill="#fefefe" fill-rule="evenodd"/><path d="M63.8,250.4c-.4-.5-4.3-4.9-4.3-5.5s5.6,3.2,6.5,3.7a3,3,0,0,1-2.2,1.8Z" fill="#fefefe" fill-rule="evenodd"/><path d="M34.1,249.8v-.5H35l.2-.8a7.1,7.1,0,0,0,0,1Z" fill="#464545" fill-rule="evenodd"/><path d="M155,249.7l-.4-.9a2.4,2.4,0,0,0,1.5-1.3c.2.2.2.2.2,1.7H156v.4l-1,.2Z" fill="#464545" fill-rule="evenodd"/><path d="M151.5,249.3a5.5,5.5,0,0,1-.1-.9l.4-.2v.9Z" fill="#fefefe" fill-rule="evenodd"/><path d="M150.6,248.5a35.3,35.3,0,0,1-.7-4.6h.2C150.2,244.6,151.3,248,150.6,248.5Z" fill="#fefefe" fill-rule="evenodd"/><path d="M39.3,248.3c-.9-.9-1.4-3.1-2-4.4h-.9l-.5.6c-.2-.2-.2-.2-.2-.6h-.4a9.8,9.8,0,0,1-1.3-2.2h-.5c-.2-1.1-.8-1.5-1.2-2.4-2.5-.6-13.3-6.1-16.1,7.1H16c-2.2-8.2,4-11.3,11.2-10.8a.8.8,0,0,1,0-.4l.6.4c.6-1.9.6-1.9.6-2.3h-.9l-.4-.6h1.4v-.6l-.6-.2v-.4c1,0,2.7.8,2.9,1.8H29.3l-.2,1.6h-.4a1.9,1.9,0,0,0-.1.6c1.4,0,2.7,1,4.1.8l.3.6,1.1-.4.2-1h-.5l-.2-1.1h-.7a7.9,7.9,0,0,1-.1-1.1h.8a1.9,1.9,0,0,0,1.2,1.1l.2-.9h.4v-1h-.4v-.6l.7-.6h-.3l1.2-18.4h.5l-.2-.7H37c1.1-5-6.8-9.6-12.6-6.6,0,.1,0,.2,0,.4-2.9,1-3.3,4.2-3.7,6.9h-.4c-2-10,7.5-12,15.3-9.3h1.7l.2-.5.6-.2c-1.3-2.3-2.4-.9-4.1-.5,0-.6,0-1.2,0-1.8a12.6,12.6,0,0,0,3,.5,15.7,15.7,0,0,1,1.1-4.7c-1.4-.9-.4-1.5-.4-2.8-3.2-6.6-11.9-4.6-14.5,1.3-.5,3.1-.5,3.1-.8,3.5a12.5,12.5,0,0,1-.2-6.7c-.5-.2-.5-.2-.5-.4l.5-.2c0,.1,0,.2,0,.4a6.3,6.3,0,0,0,2.4-2.9l-.5-.8c.5-.3.5-.3,1.4-1.4a5.3,5.3,0,0,0-.2,1.9c3.2,0,6-.8,9.5-.7v-.4l-.4-.2a7.9,7.9,0,0,1,.1-1.1,3.6,3.6,0,0,1-1.7-.3c0,.5,0,.5-.2.5a9.6,9.6,0,0,1-.2-1c5.6,0,12.3,4.9,11.9,11.3a4.7,4.7,0,0,0-1.9,1.7c-2.4-.1-2.4-.1-2.8.2a6.7,6.7,0,0,0,1.1,4.5c.7,0,.7-.4,1.2-.5s0,.3,0,.5h.5c.5-.8,1.3-1.1,1.9-2.1h.5a2.1,2.1,0,0,0,0,.6c3.1-1.8,2.9-.3,7.2-6.8l.2-.4L66.6,186h-.5v-.4l1.4-.2c.8,1.5,6.2.4,3.7,5l-.4.2v.3h-.4c0-.2,0-.4,0-.5h-.4c-.5,1.2-1.2,1.9-1.5,3.3H66.9v.7h-.5l-.4-1.2-12,5.4-1,2.5-1.4,2.4-.4.2v-.4l-.8-.3v-.4c-2.1.7-2.9,1.6-4.9,2.6,0,.1,0,.2,0,.4l-1.7,1.4L42.1,216l-.8,1.2H41l.4-4.1-1,.2.2.6-.6.2.7.4-.2.4h-.3v.9h-.4L40,217h-.3v.5l-1.9,14.1.3.2c0,.6,0,1.1.1,1.8h-.7l.4.2-.3,1.4.3.2c0,1.4,1.2,2.5,1,3.5h.5l.2.7-1-.3c0,.3,0,.7,0,1h.4c.1.5.2,1,.4,1.6h.3c.5,1.2,1.6,6-.2,6.6Z" fill="#898989" fill-rule="evenodd"/><path d="M94.5,246.2l-.4-.2c-.1-1.6-.1-3.1-.1-4.6l.5-.4C99.3,243.2,98,243.9,94.5,246.2Z" fill="#fefefe" fill-rule="evenodd"/><path d="M154,243.1v-.8h.5l-.2.7Z" fill="#464545" fill-rule="evenodd"/><path d="M205.1,242.4c-.3-1-.3-1-.2-1.7,2.3-1.6,7.6-5.6,9.8-5.2.4.9.4.9.4,1.5-2.8,1.5-6.8,4.5-9.9,5.4Z" fill="#fefefe" fill-rule="evenodd"/><path d="M86.6,240.8a.6.6,0,0,1-.2-.6H87v.4Z" fill="#fefefe" fill-rule="evenodd"/><path d="M87.3,240.3l-.2-.5h-.3l-.2-.7a1.3,1.3,0,0,1,.9-.2,1.2,1.2,0,0,0,1,.7c0,.2,0,.3,0,.5S87.8,240.1,87.3,240.3Z" fill="#fefefe" fill-rule="evenodd"/><path d="M138.8,239.3l.3-.6c.4,0,.6-.4.7-.7a3,3,0,0,0,.2.6,2,2,0,0,0-1.2.7Z" fill="#464545" fill-rule="evenodd"/><path d="M152.5,237.9l-.2-.7,1.5-1.3v1.6c-.3.3-.3.3-1.3.4Z" fill="#464545" fill-rule="evenodd"/><path d="M87.1,237.7,87,235c1.2,0,1.4,2.3.2,2.8Z" fill="#fefefe" fill-rule="evenodd"/><path d="M164.2,237a7.4,7.4,0,0,1-.5-3.1c1.8-.5,2.8-.7,3.2-2.8h.5l.3-.6h.4c.9-2.7,2.8-2.2,3.9-.5-1.9.8-4.4,3.2-5.9,3.5s-.5,2.1-.7,3.1a2.7,2.7,0,0,1-1.2.5Z" fill="#fefefe" fill-rule="evenodd"/><path d="M150,235.6l-.4-.9.4.2c0,.2,0,.5,0,.7Z" fill="#464545" fill-rule="evenodd"/><path d="M79.2,212.7l.2-.4h.3a62.6,62.6,0,0,0,.3,8.7c1.5,2.4,1.2,4.2.3,6.9h-.5a52.5,52.5,0,0,0-.3,6.5l-1,.2c0-3.4,1.7-14.5-5.4-10.8a1,1,0,0,0-.1.4c-1.2.1-1.2,1.7-1.6,2.7l-.8-1.2c2.3-2.9,2.9-2.9,7-4.1l.2.6h.9c0,.4,0,.4.2.4s0-.4,0-.5h.4v-.6c.3-.2.3-.2.5-.5s-.9-.7-1.2-1.2l.6-.2.3-6.4h.4l-.2-.3Z" fill="#898989" fill-rule="evenodd"/><path d="M188.6,234.4a1.9,1.9,0,0,1-.4-1.5l1.6-.8c.1.7.2,1.5.4,2.3h-1.5Z" fill="#fefefe" fill-rule="evenodd"/><path d="M98,234.2c-.6-1.5-1.1-1.5-1.2-3.3H96c0-2.6,12.9-11.6,15.9-12.1v-.4l1.5-.4-.2.9,1.5-.4c0-.1,0-.2,0-.3h1.8l.3.4c-1.4.7-.1,1.6.3,2.4l-1.4.5-.2.7-.5.2c0,.8-.7.7-.9,1.4-4,0-10.6,7.8-15.7,9.3l.2.6h-.5a1.3,1.3,0,0,0,.1.4Z" fill="#fefefe" fill-rule="evenodd"/><path d="M23.1,233a2.4,2.4,0,0,1-.1-.6h.4l.3.5Z" fill="#464545" fill-rule="evenodd"/><path d="M152.1,233c0-.3,0-.5,0-.7h1.1l.2.4h-.9c0,.1,0,.2,0,.4h-.4Z" fill="#464545" fill-rule="evenodd"/><path d="M159.4,232.7a4.1,4.1,0,0,1-1.1-2.7c.5,0,1.2,2,1.1,2.7Z" fill="#fefefe" fill-rule="evenodd"/><path d="M87,231.6a3.1,3.1,0,0,1,.3-.7h.4C87.3,231.5,87.3,231.5,87,231.6Z" fill="#fefefe" fill-rule="evenodd"/><path d="M94.8,231.5c-.2-.3-.2-.3-.2-.7l.6-.2A4.6,4.6,0,0,0,94.8,231.5Z" fill="#fefefe" fill-rule="evenodd"/><path d="M160.9,228.9a2.4,2.4,0,0,1-.9-1.4l-.4-.2-.3-.9h-.5a2.8,2.8,0,0,0-.6-1.3c-.2,0-.2,0-.3.8h-.7c0-2.8,4-1.5,5.4-3.5-.3-.3-.7-.3-.7-.5l.5-.2a4.4,4.4,0,0,1-.2-.8c.5.5.5.9.9,1,1.2-2.1,4.1-.6,6.2-.6,1.7-6-8.8-22.2,4.3-22.2,3.4.7,3.8.7,5.2,4,0-1.2,0-2.4,0-3.6,9.4-6.9-11.5.6-12,.6a5.4,5.4,0,0,0-.9,1.8c-1,0-1.2.9-1.7,1.6h-.3a.8.8,0,0,0-.1.4h.4c-2.9,3.9-3.4,4.3-3.5,4.7h-.5c-.3.9-1.3,1.2-1.5,2.1,1.9-.9,3.5-2.7,5.5-3.1l.3,1.2c-3.3.7-6.8,4.9-10.1,6.6l-.2-.4H154c.6-1.1,1.4-1.1,1-2.4,1.3.5,2.3.5,3-1.2-.8-.1-.8-.1-1.2.2s-.8-1.4-1.4-2.7h-.1l-.2-.8h-.4c-.7,1.5-.1,3.1.3,4.5h-.5c-1.5-8.4,2-2.6,5.1-8.7.4-2.6.6-6.1,3.5-6.9l.2-.4a1.1,1.1,0,0,0,.9-.2,5.6,5.6,0,0,0-.4-2.4c-1.5,0-5.2,2.1-5.5,3.6l-.4-.2a5.3,5.3,0,0,1,.7-2.4l-.6-.2c-.1-.5-.2-1-.3-1.5a9.8,9.8,0,0,0-3.7.6c0-.2,0-.3,0-.4s-.9.4-1.6.3a5,5,0,0,1-.8-3.3l2.6-1.4a3.6,3.6,0,0,0-1.5-2.4,1,1,0,0,1,.1-.4l.9.6v.5l.7.2c.2.6.3.9.9.9s5.3-.8,6.8-.7c-.8-6.9.2-12.3,8.4-10.4l3,5.2,1-.3c-.8-.8-1.5-6.3-1.5-7.8s.9-.4,1.1-.8.4-.2-.8-.1l-.3-.5h.5c.6-.8.6-1,1.5-1.1l.2-.4c.4,0,.4,0,.5.3.7-1.5,11.6-9.4,12.8-9.6l.2.3.7-.2a3,3,0,0,1,.2-.7c2.2.8,5,13.3,5.4,14.8-1,3.5-.2,8,3.3,9.7,5.9,16.5,5.9,16.5,10.1,28.6,1,6.3-21.6,11.1-22.7,11.7.4-2,1.1-7.3-1.1-8.4a11.1,11.1,0,0,0,.2,1.1h.4l-.2.8c-4.4-3.1-11.8-.6-14.6,4.1a9,9,0,0,0-.6,2.6,4.6,4.6,0,0,0-2.4,1.9c-1.3-.1-5.7-1.8-6.2.7Z" fill="#fefefe" fill-rule="evenodd"/><path d="M151.1,228.7a1.6,1.6,0,0,1-.4-1.1l.6-.2.3-1h.5l.3.9A3.4,3.4,0,0,1,151.1,228.7Z" fill="#464545" fill-rule="evenodd"/><path d="M199.1,228.7c-1.8-3.6,6.8-6.7,9.2-7.1a2,2,0,0,1,.2,1.5Z" fill="#fefefe" fill-rule="evenodd"/><path d="M89.1,228.3v-1.2l2.2-1.6.2-1.4-.7.2a8.4,8.4,0,0,1,.5-2.2c-.5.3-.5.3-.9.2a32.1,32.1,0,0,1,.7-7.3c-.7.2-.7.3-1.1.9a35.8,35.8,0,0,1,.8-8.7l-1,.2a42.9,42.9,0,0,0,.4-5.7c.6-.1.6-.1.9.1.3,4.3.3,4.3.5,4.3a13.4,13.4,0,0,0,1.4-3h.7l-1.4,2.8h-.4c-.2.4-.2.4-.1,1.6l-.4.2a3,3,0,0,1,.1,1.6c.3.3.3.3.6.3l-.6.3c0,4.8.1,9.8.4,14.6l.4.2c0,.6,0,1.1,0,1.8-1.6,1-2.7,2-3,2.1Z" fill="#fefefe" fill-rule="evenodd"/><path d="M228.9,228.3a21.8,21.8,0,0,1-1.4-4h.4l.2.7h.4a9.4,9.4,0,0,0,.8,3l-.3.3Z" fill="#fefefe" fill-rule="evenodd"/><path d="M231.8,228.2c-.9-1.2-2.6-3.9-2.3-5.5a5.1,5.1,0,0,1,2.1-.6l.5,1.2c1.9,0,1.7-1.3,1.9-2.8h.4c2.1,5.2,2.1,5.2,2.3,6.4-1.7.2-3.2,1-4.8,1.2Z" fill="#fefefe" fill-rule="evenodd"/><path d="M95.8,228l-.3-.2c0-.5,0-1,.1-1.6l.9.4a7.8,7.8,0,0,0-.1,1.1l-.7.3Z" fill="#fefefe" fill-rule="evenodd"/><path d="M227.9,228a3.1,3.1,0,0,1-.4-1.7A2.6,2.6,0,0,1,227.9,228Z" fill="#fefefe" fill-rule="evenodd"/><path d="M94.5,227.8c-.3-.4-.3-.4-.7-1.5h.3a3.2,3.2,0,0,1,.1-.7h.9v.9l-.4.2c.2.7.1.7,0,1.2h-.3Z" fill="#fefefe" fill-rule="evenodd"/><path d="M238.3,226.6c-2.1-5.5-5-8.6,2.3-10.1v.4a4.7,4.7,0,0,0,4.7-1.9c1.1.4,2.8,3.9,2.8,5.2s-.5,0-.7-.1-1.2.5-1.4,1.1l-1.7.5a3.6,3.6,0,0,0-.4,1.8l.8.2-.2.4a14,14,0,0,0-4.2,2.5A4.4,4.4,0,0,0,238.3,226.6Z" fill="#fefefe" fill-rule="evenodd"/><path d="M237.3,226.4a2.1,2.1,0,0,1-.4-1.5A2.1,2.1,0,0,1,237.3,226.4Z" fill="#fefefe" fill-rule="evenodd"/><path d="M93.1,225.4l-.6-.3v-.5a1.4,1.4,0,0,1,1.4-.4l.2,1Z" fill="#fefefe" fill-rule="evenodd"/><path d="M190.2,224.2l-.2-.9.7.2c.3-.4.3-.4.7-.5a6.7,6.7,0,0,0,.1,1c-1,0-1,0-1.2.2Z" fill="#fefefe" fill-rule="evenodd"/><path d="M143.1,223.7l-.2-1h.5v.9l-.4.2" fill="#fefefe" fill-rule="evenodd"/><path d="M144.8,222.6c-.4-.4-1-.7-1-.9s1.6-.8,1.6-2.2h-.5c.3-4.9-1.4-11.8-2.3-16.8h-.3a4.3,4.3,0,0,0-.1.8c-2.5.3-5.1,4.2-8.1,4.9a3.1,3.1,0,0,1-.5,1.6,93.8,93.8,0,0,1-9.6-.4c0-.5.3-.5.6-.7v-.5c2.4,0,7.1-5.4,9.4-6.5v-.3c.8.4,6.3-4.3,7.5-5.3-1.1-6.3-1.1-6.3-1.3-6.7l.4-.2c1.3,7.1,3.1,14.8,3.8,22.1h.4l-.2-1.8h.3c.2.9.3,1.9.5,2.8l.7.2a17.7,17.7,0,0,1-.7-4.3h-.3c-1.9-15.4-6.1-30.7-7.7-46l.9-.3.2-.4,1.2-.2,1.1-1.9c2.6,5.3.8,15.2,3.9,19.9,1.8,12,4.4,24.1,6.7,36,.5.3,1-.1,1.6-.2a1.8,1.8,0,0,1,.2,1.3C150.6,218.4,146.7,220.3,144.8,222.6Z" fill="#fefefe" fill-rule="evenodd"/><path d="M83.7,220.4a2.3,2.3,0,0,1-.1-.5c.3-.3.6-.3,1-.2a1.3,1.3,0,0,0-.9.7Z" fill="#fefefe" fill-rule="evenodd"/><path d="M137.9,220c.3-.4.3-.4,1.2-.9s-.5.8-1.2.9Z" fill="#fefefe" fill-rule="evenodd"/><path d="M146.1,219.7c0-.1,0-.2,0-.3s.4-.2.4-.4-1.5-5.9-1.7-7.1h.3a39.6,39.6,0,0,0,1,3.9c.2,0,.2,0,.2-1.9.8,1.4.9,3.9,1.1,5.5l-1.2.3Z" fill="#898989" fill-rule="evenodd"/><path d="M140.3,219.3c-.2-.3-.2-.3-1-.6s.7-.6,1.5-.5A6.5,6.5,0,0,0,140.3,219.3Z" fill="#fefefe" fill-rule="evenodd"/><path d="M84.1,218.6c.2-.6.5-.7,1-.8s0-.3,0-.4h.4l-.2.7-1.2.5Z" fill="#fefefe" fill-rule="evenodd"/><path d="M122.2,218.5c-.8-.5-2.2-1.5-3.3-1.2,0-1.5-5.1.3-5.8.6l.6-1.4c1.6,0,5.2-3.3,6.6-4.3,3.4.2,3.4.2,7.7.6v.4c-.8,0-4.5,4.3-4.3,4.7A2.1,2.1,0,0,0,122.2,218.5Z" fill="#fefefe" fill-rule="evenodd"/><path d="M146.3,217.6a1.4,1.4,0,0,1-.1-1.4C146.4,216.6,146.7,217.2,146.3,217.6Z" fill="#fefefe" fill-rule="evenodd"/><path d="M149.8,217.4a3.1,3.1,0,0,1,.1-.7h.4l.2.4-.7.4Z" fill="#464545" fill-rule="evenodd"/><path d="M86.5,217a14.4,14.4,0,0,1,.5-3.5c.7,1,.5,2.2.4,3.4l-.9.2Z" fill="#fefefe" fill-rule="evenodd"/><path d="M101.8,216.7c-1.3-1.8-1.2-3.4,1.2-4,0-.2,0-.4,0-.5l.5-.3c0-.2,0-.3,0-.4s3.8-.1,5.4.2v.6l-.7-.3a2.4,2.4,0,0,0,.1.5l-1.1.2a4.4,4.4,0,0,1-2.5,1.6c0,.2,0,.3,0,.5s-1.1.9-1.6.7l-1.2,1.2Z" fill="#fefefe" fill-rule="evenodd"/><path d="M233,216.4a1.7,1.7,0,0,0-2-.9.8.8,0,0,1,.1-.4l.6-.2.6-1.3a2.2,2.2,0,0,1-.3-1.4l.5.9c1.7.3,2.9-.8,4.4-1.1l.2-.5a6.4,6.4,0,0,1,1.5-.4c.3.6.3.6.2,1.1h-1a2.3,2.3,0,0,1,.4,1.4C236.1,214.6,234.8,215.5,233,216.4Z" fill="#fefefe" fill-rule="evenodd"/><path d="M93,212.2a5,5,0,0,1,1.7-.7,9.1,9.1,0,0,1,2.4,2.3c-.2.9-.9.8-1.6.8l-.5,1H94a5.9,5.9,0,0,1-.9-2.1l-.4-.2a8.5,8.5,0,0,1,.2-1.2Z" fill="#fefefe" fill-rule="evenodd"/><path d="M114.6,215.5a2,2,0,0,1,1.2-.7c-.7.6-.7.6-1.2.7Z" fill="#fefefe" fill-rule="evenodd"/><path d="M138.4,215.5c.5-.5.4-.5,1-.7s0-.3,0-.4h.9a5.5,5.5,0,0,1-1.9,1.1Z" fill="#fefefe" fill-rule="evenodd"/><path d="M211.5,215.2l-.5-.9h-.3l.2.2c-.2.1-.2.1-1-.4l.2-3.2c-3.3-9.7-7.7-21.6-12.2-32.3q1-4,8-4.5v.3h.5c1.4,5.2,8.7,24.3,12.3,34.6l1.1.7-.5,1.2.9.4v.4A34.3,34.3,0,0,0,211.5,215.2Z" fill="#fefefe" fill-rule="evenodd"/><path d="M149.1,214.8v-.6l.5-.3C149.4,214.6,149.4,214.6,149.1,214.8Z" fill="#464545" fill-rule="evenodd"/><path d="M142.9,214.4v-.8l.7-.2c0,.6-.5.7-.9,1Z" fill="#fefefe" fill-rule="evenodd"/><path d="M226.4,213.8l-1-2.1c.2-.5.2-.6.6-.7a5.7,5.7,0,0,0-.2-1.8h.4c.6,1,1.9,2.6,1.7,3.7l-1.5.8" fill="#fefefe" fill-rule="evenodd"/><path d="M93,212.2h-.6a2.7,2.7,0,0,0-.3.7l.2.3-.3.2q0-.9,0-1.9c.4-.2.4-.2,1.1-.2a3.1,3.1,0,0,0-.2.7Z" fill="#fefefe" fill-rule="evenodd"/><path d="M86.8,212.7a18.6,18.6,0,0,1,0-6.2h.4c.1,1.7,1,4.9-.4,6.2Z" fill="#fefefe" fill-rule="evenodd"/><path d="M142.8,212.4c0-.2,0-.4,0-.5h1.1l-1.1.5Z" fill="#fefefe" fill-rule="evenodd"/><path d="M141.6,212.1l-.2-.3h1v.4h-.9Z" fill="#fefefe" fill-rule="evenodd"/><path d="M100.5,211.7v-.5l1-.2a1.3,1.3,0,0,1-1,.7Z" fill="#fefefe" fill-rule="evenodd"/><path d="M230.4,211c-.9-1.4-2.1-2.7-1.9-4.5,1,1,1.2,2.4,1.7,3.7h.8l-.2.6-.5.2Z" fill="#fefefe" fill-rule="evenodd"/><path d="M102.7,210.1v-.4h1l.2.3Z" fill="#fefefe" fill-rule="evenodd"/><path d="M249.4,202.2c-.1.2-.1.2-1,.3v.7a3.2,3.2,0,0,1-1.2-1.3c-4.7,0-10.4,7.2-15.3,8.2l-.5-1c.6-.5,3.8-2.1,15.4-8.8h.4l.3-.4c.3.1,1.4,1.8,1.9,2.2Z" fill="#fefefe" fill-rule="evenodd"/><path d="M98.8,210l.2-.3H100c0,.1,0,.2,0,.4Z" fill="#fefefe" fill-rule="evenodd"/><path d="M95.7,209.8l-1.9-.3h3v.3H95.7Z" fill="#fefefe" fill-rule="evenodd"/><path d="M147.6,209.8l-.3-.8a2.7,2.7,0,0,0,1.2-1.2h.4a12.5,12.5,0,0,0-.2,1.5Z" fill="#464545" fill-rule="evenodd"/><path d="M132.9,209.6l-.2-.2c.3-.3.3-.3.8-.3l-.2.4-.5.2Z" fill="#464545" fill-rule="evenodd"/><path d="M118.3,209.5l-.2-.3c.5-.2.6-.1,1.2-.1l-1,.3Z" fill="#fefefe" fill-rule="evenodd"/><path d="M114.9,209.2a1,1,0,0,1-.1-.4h3.1c0,.1,0,.2,0,.3Z" fill="#fefefe" fill-rule="evenodd"/><path d="M112.8,209.1l-9-.7,1.5-.8c0-.2,0-.3,0-.4s1.9-1,2-1.6h.4c0-.1,0-.2,0-.3s2.7-2.3,4.2-2.6c0-.7,2.8-2.6,3.7-2.8s0-.4,0-.5a2.3,2.3,0,0,0,1.5-1.4c5.4,0,16.3-14.8,22.1-16-.2-1.5-.4-2.9-.5-4.3h.4c.5,3.2,1.1,5.5,1.8,10.9-.1.3-.1.3-.3.3s0-.2,0-.3h-.4v-1.2c-5.8,6.4-20.6,16.4-25.8,20.6h-.4c0,.1,0,.2,0,.3h-.7v.4a2.4,2.4,0,0,1,1.4.4h-1.9Z" fill="#fefefe" fill-rule="evenodd"/><path d="M105.9,208.4a8.5,8.5,0,0,1,2.9-2.3c-.2.4-.2.4-1.3,1.4.5,0,.5,0,1.4-.5v.5a7.2,7.2,0,0,1-3,.9Z" fill="#464545" fill-rule="evenodd"/><path d="M95.5,208.2l-.2-.2a3.4,3.4,0,0,1,1.5-.6,6.9,6.9,0,0,0,.2.8H95.5Z" fill="#fefefe" fill-rule="evenodd"/><path d="M165.9,207.5v-.9h-.7v-.3h.9a1.9,1.9,0,0,1,.2,1.1Z" fill="#fefefe" fill-rule="evenodd"/><path d="M147.5,206.3c-.1-.3-.1-.3.1-.8h.4l-.2.6-.4.2Z" fill="#464545" fill-rule="evenodd"/><path d="M111.4,205.4a6.5,6.5,0,0,1,.5-1h.7c.2-.7.7-.8,1.4-.7l.2.4c-.4.3-.4.3-2.8,1.4Z" fill="#464545" fill-rule="evenodd"/><path d="M120.8,198l.2.7h-.3v.4c-1.3,0-2.5,1.5-3.2,2.6h-.5c-.5,1.2-1.8,1.5-3,1.6a7.7,7.7,0,0,1,.3-1.1l1-.6.2.3,3.5-2.8.5-.2.2-.4.9-.2c0-.2,0-.4,0-.5Z" fill="#898989" fill-rule="evenodd"/><path d="M109.2,203.2c.3-.5.7-1.4,1.4-1.1a1.9,1.9,0,0,1-1.4,1.1Z" fill="#fefefe" fill-rule="evenodd"/><path d="M96.7,203l2.8-5.8h.4l3.9-3.8V193l32.9-26.6c-.2-1.6-1.3-4.4-1-5.9,1.4,2.5,2.9,14.2,3.1,16.6l-.4.2-.9-5.7-30.3,23.4Z" fill="#fefefe" fill-rule="evenodd"/><path d="M86.5,202.2c0-3,0-5.9,0-8.8h.4c.2,3.7.2,3.7.1,8.7h-.5Z" fill="#fefefe" fill-rule="evenodd"/><path d="M155.9,201.4c-.9-2.5-.9-2.5,1.3-3.4l-.3,3.1-1,.3Z" fill="#fefefe" fill-rule="evenodd"/><path d="M89.6,200.8c.6-2.2.6-2.2.9-2.8h.3v2.4l-1.2.4Z" fill="#fefefe" fill-rule="evenodd"/><path d="M146,200.1c-.3-.3-.4-.3-.4-.8a1.7,1.7,0,0,0,1-1h.4A1.8,1.8,0,0,1,146,200.1Z" fill="#464545" fill-rule="evenodd"/><path d="M94.3,199.7l-.4-.6a6.3,6.3,0,0,1,.4-1c.8.3.8.7.6,1.5l-.6.2Z" fill="#fefefe" fill-rule="evenodd"/><path d="M92.6,199a4.1,4.1,0,0,1,.1-.8c.4.1.7.2.8.6l-.9.2Z" fill="#fefefe" fill-rule="evenodd"/><path d="M168.1,199a1,1,0,0,1,.1-.4h.8v.3l-.9.2Z" fill="#464545" fill-rule="evenodd"/><path d="M120.8,198c.5-1.4.5-1.4.7-1.4v.5c.5,0,4.1-2.8,3.9-3.6,2.8,0,7.9-6,10.8-7.5l-.2-.4.8-.3a1.9,1.9,0,0,1,.1-.6h.7v-.5h.4l.2-1.1a1.8,1.8,0,0,1,1.1-.5,10.1,10.1,0,0,1,.3,3h-.4l-.2.4C132.9,185.9,125.6,199.4,120.8,198Z" fill="#898989" fill-rule="evenodd"/><path d="M90.3,197c-.2-.7-.3-.8.4-.8s0,.4,0,.6Z" fill="#fefefe" fill-rule="evenodd"/><path d="M72.2,193.8c.6-2.3,2.8-2.2,4.7-2.1l.2.7a8.6,8.6,0,0,0-4.9,1.4Z" fill="#fefefe" fill-rule="evenodd"/><path d="M145.3,193.8a2.4,2.4,0,0,1-.1-.6l.6-.2-.2.6Z" fill="#464545" fill-rule="evenodd"/><path d="M144.3,192.1a5.6,5.6,0,0,1,0-.9l.7-.2.2-.8h.4a3.2,3.2,0,0,1-.2,1.6l-1,.2Z" fill="#464545" fill-rule="evenodd"/><path d="M89.6,191.9a24.2,24.2,0,0,1,.2-4.3h.6l.2.3-.5.6.4.2.2,3.3h-1Z" fill="#fefefe" fill-rule="evenodd"/><path d="M38.8,189.5c-.2-.3-.2-.3-.2-.7h.6v.7l-.4.2Z" fill="#fefefe" fill-rule="evenodd"/><path d="M37.7,188.9l-.5-.6.8-.2c0,.3,0,.5,0,.8Z" fill="#fefefe" fill-rule="evenodd"/><path d="M36.5,188.3l-.6-.4h.8l.2.4h-.4" fill="#fefefe" fill-rule="evenodd"/><path d="M86.3,184.8l-.3-.2c-.1-5.8-.1-11.7-.1-17.4.4,5.8.6,11.8.7,17.6h-.4Z" fill="#fefefe" fill-rule="evenodd"/><path d="M182.5,145.4a7.2,7.2,0,0,1,1.4-.4c.1,3.1,1.3,4.7,2.1,7.3h-.4c-.8,2.9-7.8,7.9-11,9.3l-.2-.4a13.5,13.5,0,0,0-3.2-.6l-.3.5h-.4a1,1,0,0,0-.1.4,7.5,7.5,0,0,0-2.3.3c.7.4,1.6.1,2.5.4.8,2.2.8,2.2.7,2.6s-1.2,1-2,1.4a41.2,41.2,0,0,1,1.4,6.1h-.3c0,.5.7,1.3.9,1.8-5.6.7-9,.7-11.9,6.1-1-1.2.4-3.3.9-4.4h-.5a51.3,51.3,0,0,0-1.4-6l-.2.3c0-.3,0-.6,0-.9a1.9,1.9,0,0,0-.9,1.4H157c0,2-2.1,3.5-2.7,5.6H154c-.4.7-3.2,3.4-4,3.1s0-.4,0-.5h-.5c-.3-1.2-.5-2.3-.7-3.5,4.2-.6,4.2-5.6,5.3-9h.3c.8-1.1,1.5-.9,2.9-1.2s0-.7-.7-3.9c-1.9.2-4.1,2.4-5.2,2.3s-.2-.3-.2-.8l-.9.2c0-.2,0-.3,0-.4s-1.5.2-2.7.7l-.2.5-1.1-.4a1.3,1.3,0,0,1-.1-.4l-.4.2a4.4,4.4,0,0,1,0-.8h-.3c-1.7-2.6,5.2-4.4,7.2-4.7s1.3-2.2,2.4-2.8-.1-.5-.4-.8l-.9.5a6.5,6.5,0,0,1-.9-3.1c.4-.4.7-.3,1.3-.2-1.5-6.5.2-10.6,7.2-9.2v.4l1,.3c1.2,2.8,3.1,7.4,2.9,10.5a10.1,10.1,0,0,1,2.6,3.4c-.6.7-.9.9-1.1,1.2s.9,1.4,1.9,1.7v-.4c1.2-1.2,5.9-5.7,6.3-7.7l.7-.2c0-.2,0-.4,0-.5l.5-.2c.7-1.5,3.7-2.2,4.2-3.6-.5.1-.5.1-3.9,2.8,0,.1,0,.2,0,.4s-.4.1-.5.5a4.4,4.4,0,0,1-1.8-.4c0-.2,0-.4,0-.5h-.7c1.2-4.4,8.3-4.9,9.3-7.8h.8c.5,2.5-.9,1.6-1.3,3.5Z" fill="#fefefe" fill-rule="evenodd"/><path d="M95.5,179.1l.3-6.5h.6c3.1-6.3,17.3-16.5,22.6-20,0-.1,0-.2,0-.3,2.2-1.6,5-1.9,6.6-3.3l-3.8,5.6-2,1.3-.4,1.2L96.8,175.9l-.2.3H96v.4h-.5l.4,2.4Z" fill="#fefefe" fill-rule="evenodd"/><path d="M195.2,177.3c.5-1.4,2.5-10.3,0-9.7l-6.7-20.5c0-4,5.5-5.4,6.7-1.9h.4c0,.1,0,.2,0,.4h.7l-.2.9.9,1.9h-.3c1.2,3.9,6.9,17.4,6.8,20.7,1.1,0,2.5-.1,3,1.2H206v.4h.6l.2.4c-2.8.6-8.7,2-9.9,5.2h-.7l.2.4c-.4.1-.4.1-1,.5Z" fill="#fefefe" fill-rule="evenodd"/><path d="M113.8,176.1l-.2-.3h-.9c1.5-3.5,4.3-9.5,7.9-10.7v-.4c1.2-.6,1.9-1.9,3.2-2.2s1.5-1.5,2-1.8v-.5c1.5-.9,2.9-2.9,4.5-3.4a11.1,11.1,0,0,0-1.5,2.4h-.4c-.3.7-.5,1.4-.7,2.1h-.4l-2.2,4.7a6.7,6.7,0,0,0-2.5,2.1l-.7.2v.3l-.9.4c0,.1,0,.2,0,.4s-1.3,1.8-2.7,2.2l.2.4h-.4c-.5,1.1-2,1.2-2.8,2.6h-.9l-.2.4h-.4a9,9,0,0,0-.1,1.2Z" fill="#fefefe" fill-rule="evenodd"/><path d="M201.3,153a5,5,0,0,1,1.2,2.4h.4c.1.7.1.7.9,2.8h.3c.6,4,2.5,7.6,3.5,11.3l-.8-.2c0-5-4.7-11.3-5.4-16.3Z" fill="#fefefe" fill-rule="evenodd"/><path d="M94.7,165.7v-.4h-.4c0-.2,0-.3,0-.4l-.6-.2c.2-2.2.1-2.8,1.9-3.6,0-.5.5-.8.9-1,0-2.1-2.7-3.6-3-5.9-1.4-.7-1.7-2.8-3.3-3.6v-.6h1.1c1.2-1.9,17.8-6,20.9-5.6v.7a13.2,13.2,0,0,1,8.8-2.3l-1.3.7a1,1,0,0,0-.1.4h-.4l-.2.9c-1.4.2-3.4,1.5-3.7,2.9l-1-.2-.2,1.2-.6.2a1.6,1.6,0,0,1,.1-.5l-.7-.5-.7.3c0,.1,0,.2,0,.4l-.5.2a12.3,12.3,0,0,0-.4,1.2l-.4.2-.2.5c-2.3.1-6.5.1-7.4,3l3.7-.5c.3,2.8-2.4,1.1-3.4,1.3a1,1,0,0,0-.1.4l-1.1.5c0,.3,0,.6,0,1s.7.6.7,1.2a8.2,8.2,0,0,1-1.8,1.4l-.2,1c-1.5,0-3.1,2.2-4.5,2.9v.5l-.6-.3a.7.7,0,0,0-.1.3h-.4l-.7,1.2-.4-.2v1.1Z" fill="#fefefe" fill-rule="evenodd"/><path d="M92.5,163.4a6.1,6.1,0,0,1-1.6-3.9h.4c.8,1.2,1.9,2.2,1.5,3.7Z" fill="#fefefe" fill-rule="evenodd"/><path d="M129.2,162.9c0-4.1,3-5.4,4-8.6h.3c.3-.8.7-.8,1.2-.9.2,1.9.4,2.2.8,4.7,5.1-2.1-9.1-36-4.7-37.5l.2-.7c.7,0,1.5-1,1.9-1.5a5.1,5.1,0,0,1,0-.8c-1.3.4-1.7,1.7-2.9,1.9a6.1,6.1,0,0,1-.3-2.3c1.2-.9,1.7-1.8,3.1-2,2,13.1,4.9,26.2,7.3,39.2.6-.3.5-.7,1.2-.6v.8c-2.2,1.6-4.5,4-6.7,5.4v.3l-.9-.3-.2-.4a2.3,2.3,0,0,0,1.4-1.2c-.1-.5-.1-.5-.3-.5s-2.6,1.2-2.8,2.9-1,.7-1.5,1.6l-.9-.2c0,.2,0,.4,0,.7Z" fill="#fefefe" fill-rule="evenodd"/><path d="M137.6,161.2l-.3-.2L137,159c.8-.7,1.5-1.8,2.5-2.1s0-.3,0-.4h1c.1.8.2,1.7.4,2.5s-1.8.6-2,1.6Z" fill="#fefefe" fill-rule="evenodd"/><path d="M155.4,157.6l-1.4-.2V157c.5-.3,1.2-1.1,1.7-1.4l.3,1.6Z" fill="#464545" fill-rule="evenodd"/><path d="M185.3,157.6l-.2-.5h-.3a4,4,0,0,1-.1-.8l.8-.2a3.4,3.4,0,0,0,.2-1.5,2.5,2.5,0,0,1,1.4-.2l.3.7h.4v.5c-.5-.1-.5-.1-.7.2l.4.2v1.2l-1.9.4Z" fill="#fefefe" fill-rule="evenodd"/><path d="M187.5,154.8a7.2,7.2,0,0,1-.2-.9h.4l.2.8h-.3Z" fill="#fefefe" fill-rule="evenodd"/><path d="M137.4,154.3l-.3-.6,1.3-1.1c0,1,.2,1.5-1,1.7Z" fill="#464545" fill-rule="evenodd"/><path d="M151.6,138.7c-.2.1-.2.1-.8,2.4h-.4c0,.2,0,.5,0,.7h.4c0,.1,0,.2,0,.3s-.9,2.2-1.2,3.1h-.3c-.4.5-1,.8-1,1.4h-.4a1.9,1.9,0,0,0-.1.6h-.5c-.4,1-1.3,1.4-1.9,2.3h.5c.3-.5.9-.5,1-1h.7v-.4c.9-.5,1.9-1.6,2.9-1.7a6.4,6.4,0,0,0-.4,1c-2.5.5-5.6,4.3-7.7,6a5.5,5.5,0,0,1-.1-.9l.6-.2c0-.6,1.2-1.1,1.5-1.8-3-1,2.5-7.5,2.9-10h.3l.3-1.4c1.4-.5,1.5-1.5,3.6-1.3Z" fill="#fefefe" fill-rule="evenodd"/><path d="M199.4,148.2h.5a7.1,7.1,0,0,0,.2.9h.3l.2.9.4.2a6.8,6.8,0,0,0,.4,2.9,15.3,15.3,0,0,1-1.9-4.8Z" fill="#fefefe" fill-rule="evenodd"/><path d="M136.4,148.2c-.2-.3-.2-.3-.2-.8s.7-1,1.2-.8A2,2,0,0,1,136.4,148.2Z" fill="#464545" fill-rule="evenodd"/><path d="M172.8,148.2a3.6,3.6,0,0,1-.1-.7c2-1.5,8.2-7.7,10.4-7.7a7,7,0,0,0,0,1C180.6,142.8,175.9,147.3,172.8,148.2Z" fill="#fefefe" fill-rule="evenodd"/><path d="M199.4,148.2c-.2-.2-.2-.2-1.5-3.3.9,0,1.5,2.4,1.5,3.3Z" fill="#fefefe" fill-rule="evenodd"/><path d="M130.9,147.8l-1.2-.5c0-1.5,2-3.9,3.5-3.9l.6,4.4h-.4c-.2-1.3-.2-1.3-.5-1.7a8,8,0,0,1-2,1.7Z" fill="#fefefe" fill-rule="evenodd"/><path d="M182.5,145.4a2.8,2.8,0,0,1-1.2.9c.5-.5.7-.8,1.2-.9Z" fill="#464545" fill-rule="evenodd"/><path d="M93.6,146.1a2.6,2.6,0,0,1-.1-.6,47.8,47.8,0,0,1,4.7-4.4v-.3c1.9-1.7,5.2-6,7.7-5.7a6,6,0,0,0,.1.9l2.1.5a1.4,1.4,0,0,1,0-1c.6,1.6,3.6,2.2,5.1,2.6v-.8h.7c0,.3,0,.5,0,.8l-.6.4a7.5,7.5,0,0,0,.4,3c-9.4,2.1-14.7,3.5-20.3,4.7Z" fill="#fefefe" fill-rule="evenodd"/><path d="M151.8,145.6c0-2.7,3.4-11.2,7.6-8.2a4.2,4.2,0,0,0-.1.8h.3c0,.2,0,.4,0,.7A32.8,32.8,0,0,0,155,141a1,1,0,0,0-.1.4c-1.8.5-2,2.9-3,4.2Z" fill="#fefefe" fill-rule="evenodd"/><path d="M166.1,145.2c-.7-1.7-1.2-6.6-2.9-6.6,0-.3,0-.5,0-.7l1.2-.3c.1-.5.3-1,.4-1.6s-1.5-.9-2.7-1a2.4,2.4,0,0,1-.1-.5h-.4a21.4,21.4,0,0,0-1.3-4.6c1.6-2.5,5.9-1.7,4.3-6.8h-.5c0-.2,0-.3,0-.4s.4,0,.4-.2l-3.2-.9c-.6,1.1-.1,3.7-.4,5.2h-.9c-1.9-4.8-3.3-5,1.1-6.7-10.4,0,5.9-19,9.8-16.6,0,.9.1,1.9.1,2.8a4.8,4.8,0,0,1,1.9,2.2c.8,5.8,3.7,11.3,5.1,17.2l.4.2.2,1.4h.4c0,2.2,2,4.2,1.3,6.4l.4-.3c3.3,1.1-7.8,11.2-11.6,10.4,0,.1,0,.2,0,.4s-2,.2-3,.8Z" fill="#fefefe" fill-rule="evenodd"/><path d="M144.6,144.2a1.3,1.3,0,0,1-.6-1.4l.6-.2c.1.7.3.9,0,1.6Z" fill="#fefefe" fill-rule="evenodd"/><path d="M186.2,142.1l.3-1.4-.5-.2v-2.1h-.4l-6.9-19.9c0-.9.3-1.4-.6-1.4-.5-3.3,2.8-5,5.6-4.1l.2,1c.5,0,.5,0,.5.2l-.4.2,9,22.3-.3.4.8-.7h.5l-.8,1h.4a3,3,0,0,0-.2.7h.5c0,.1,0,.2,0,.3C190.7,138.7,189,141,186.2,142.1Z" fill="#fefefe" fill-rule="evenodd"/><path d="M191.1,142.1a2.7,2.7,0,0,1,.1-.7c.5.3.5.3.5.5Z" fill="#fefefe" fill-rule="evenodd"/><path d="M135.2,141.1l-.4-.6c.5-.4.7-.8,1.4-.8a2.5,2.5,0,0,0,0,.6,1.9,1.9,0,0,1-1.1.8Z" fill="#464545" fill-rule="evenodd"/><path d="M118.8,140.2v-.5h.4c-.2-1-.6-1.5-.2-2.4s1.1,1,1.9,1.2,7.6-7.5,8.9-7.8l.3-.6h.4c.5,2,1.6,4.7,1.3,6.7l-.6-1.7h-1.6c0,.2,0,.4,0,.7s-.9.5-1.2,1.1h-.9l-.4,1.1C124.3,138.6,121.6,139.8,118.8,140.2Z" fill="#fefefe" fill-rule="evenodd"/><path d="M151.6,138.7a12.6,12.6,0,0,0-.7-3.5h-.5c-.7,1.5-3.8,2.5-5.1,4.1,0-.7,0-1.5.1-2.1l-.8.3.5-.5h-.6v.5h-2.3a4.6,4.6,0,0,0-.4.9c-1,0-1.1-1.7-1.3-2.4,3-1.4,4.6-3.1,7.8-3.5-.2-1-.4-2-.5-3h-.4a4.7,4.7,0,0,1,1.7-2.6c-.9-4.5-2.9-8.3-.9-12.5,7.9-9.6,10.6,12.5,11.2,14.9h.4c.2,1.7.4,1.9.8,4.2h.5a6.6,6.6,0,0,0,.2,2.2h.3v.4h.5l.4.8c-4.5-1.9-7.8-2.1-10.4,2.8Z" fill="#fefefe" fill-rule="evenodd"/><path d="M161.9,139.5c-.1-.7-.1-.7.1-.9A6,6,0,0,0,161.9,139.5Z" fill="#fefefe" fill-rule="evenodd"/><path d="M160.2,139.2l-.2-.9h.5l.2.6-.5.2Z" fill="#fefefe" fill-rule="evenodd"/><path d="M199.1,138.3c-.7-2.3-2.8-2.6-3.2-4.7,1.5-.6,1.5-.6,1.9-.6s1.9,3.5,1.7,5.1Z" fill="#fefefe" fill-rule="evenodd"/><path d="M201.4,137.4c-.3-.7-.8-4.3-1-4.7,2-.2,3.2,1.4,2.8,3.5-.5.2-1.1.8-1.9,1.2Z" fill="#fefefe" fill-rule="evenodd"/><path d="M205.7,136.2c-.8-.4-1-1.7-1.2-2.6h1.1c.7,2,.7,2,.7,2.5l-.5.2Z" fill="#fefefe" fill-rule="evenodd"/><path d="M209,135.9c1-1,4.9-.9,6.2-.9a55.9,55.9,0,0,1-6.2.9Z" fill="#464545" fill-rule="evenodd"/><path d="M134.4,135.3a3.8,3.8,0,0,1-.1-.7c.6-.5.6-.5.7-.8h.4c0,.9-.2,1.2-1,1.6Z" fill="#464545" fill-rule="evenodd"/><path d="M207.3,134a3.5,3.5,0,0,1-.4-2.1,8.3,8.3,0,0,0,2.8-2.7l-.2-.5a2.6,2.6,0,0,0-2.4,1.6h-1.1a2.6,2.6,0,0,1-.8-2.4c2.5-.8,4.6-2.7,6.7-3.4a4.5,4.5,0,0,1,.7,2.2l-1.4.4c0,.2,0,.3,0,.5h-1.1a3,3,0,0,0-.3.7l1,.3c.6-.5,1.4-1.6,2.3-1.4s0,1,0,1.5c-2,1.1-4.3,4.4-6,5.2Z" fill="#898989" fill-rule="evenodd"/><path d="M195.4,133.1l-.8-2.2a2.7,2.7,0,0,1,.9-1c.9.3,1.5,1.8,1.6,2.7l-1.7.5Z" fill="#fefefe" fill-rule="evenodd"/><path d="M199.8,131.7l-2-3.3c.3-1,1.9-1,2.8-.9a25.7,25.7,0,0,1,1.3,4.2Z" fill="#fefefe" fill-rule="evenodd"/><path d="M206.2,129.8l-.4-.2a.8.8,0,0,1,.1-.4h.4l.2.6h-.3Z" fill="#fefefe" fill-rule="evenodd"/><path d="M133,129.3c-.5-1,.1-.8.4-1.6h.5a2.5,2.5,0,0,1-.5,1.5H133Z" fill="#464545" fill-rule="evenodd"/><path d="M107.6,128c0-.1,0-.2,0-.3h-1.1a1.6,1.6,0,0,1-.5-1c1.3-.5.6-1.8,1-3l.9-.3.2-.8.6-.3c0-.2,0-.4,0-.5,1.9-1.5,6.1-4.5,7.1-6.1,1.1.5,1.8,1.6,2.6,1.8s-5.2,5.9-6.4,5.9-.5.8-.7,1.6h-.7c0,.2,0,.3,0,.5s-1.7,2.2-3,2.6Z" fill="#fefefe" fill-rule="evenodd"/><path d="M138.6,127.5a11.6,11.6,0,0,1-1.2-3.1c.8.4,1.3,2.2,1.2,3.1Z" fill="#fefefe" fill-rule="evenodd"/><path d="M201.3,126.3l-.2-.7c.4.1.4.1.6.5l-.4.2Z" fill="#fefefe" fill-rule="evenodd"/><path d="M139.4,126.2l-.8-2.1c4.7-1.7,2.7-7.2,6.5-9.2.3,2.8-.2,4-.5,6.4-1.1.7-1.6,3-2.6,3.3a2,2,0,0,0-.1.6l-1.1.3-.2.7-.2-.3-1.2.4Z" fill="#fefefe" fill-rule="evenodd"/><path d="M131.9,123.9a3.8,3.8,0,0,1-.1-.7c.5-.3.6-.7,1.2-.8v1.2Z" fill="#464545" fill-rule="evenodd"/><path d="M102.7,121.6V121l1.7-.5v.3l-1.1.5a1,1,0,0,0-.1.4Z" fill="#fefefe" fill-rule="evenodd"/><path d="M108.2,121c0-.2,0-.4,0-.5s-.9-.6-1-1.4l-.6-.2v-.5a6.5,6.5,0,0,1,2.1-1.4c1.3,1.7,1.3,1.7,1.7,1.8s-1.2,1.3-2.2,2.1Z" fill="#fefefe" fill-rule="evenodd"/><path d="M125.7,120.4c0-.2,0-.5,0-.7h.5c0,.2,0,.5,0,.7h-.5Z" fill="#fefefe" fill-rule="evenodd"/><path d="M128.7,120.1a2.8,2.8,0,0,1-.4-1.4h.4q0,.7,0,1.4Z" fill="#fefefe" fill-rule="evenodd"/><path d="M127,119v-.9a2.2,2.2,0,0,0,1.2-2,2.9,2.9,0,0,0,.2.6l.7-.4c0-1.1-1.4-8.3,2.2-7.1l1.1,4.1h1c-.5.5-.5.5-.6.9-2.7.5-3.5,4.3-5.7,4.8Z" fill="#fefefe" fill-rule="evenodd"/><path d="M130.9,117.8a5,5,0,0,1,0-.8c.4-.4.6-.6,1.1-.6l-.2,1.1-.9.4Z" fill="#464545" fill-rule="evenodd"/><path d="M104.6,117.3c-.2-.3-.2-.3-.5-.4s0-2.2,0-3.3c2.6-1.3,2.6-1.3,3.1-1.4s5.5-3.1,6-3.3v.5c-.7.2-4.2,2.8-4.2,3.6s-4.1,3.4-4.5,4.2Z" fill="#fefefe" fill-rule="evenodd"/><path d="M139.4,117.1c-1-1.3-.5-2.2-.6-3.9s-1.6-.7-1.3-2.1l.9-.2a16.2,16.2,0,0,1,2-2.6h.5a11.7,11.7,0,0,0-.4,1.2h-.3a1.6,1.6,0,0,0,.1.4l.7-.2a4.6,4.6,0,0,1,.7,4c.9-.8,1.2-1.4,2.4-1.4l.2.3a35,35,0,0,1-4.9,4.5Z" fill="#fefefe" fill-rule="evenodd"/><path d="M125.5,115.9c.8-.8,1.9-1.6,1.9-3a8,8,0,0,1,.5,2.7C127.3,115.8,127.3,115.8,125.5,115.9Z" fill="#fefefe" fill-rule="evenodd"/><path d="M108.7,115.4c.1-.6.1-.6.5-.9h-.6c0-.2,0-.4,0-.5,1.7,0,2.1-1.1,3.5-1.7v.5a26.6,26.6,0,0,0-3.4,2.6Z" fill="#fefefe" fill-rule="evenodd"/><path d="M115.8,114.7a7.9,7.9,0,0,1-.1-1.1h.6a1.4,1.4,0,0,1-.5,1.1Z" fill="#fefefe" fill-rule="evenodd"/><path d="M145.6,114.7c.1-.7.2-1.4.4-2.1l.5-.2a4.6,4.6,0,0,1,3.9-3.3c0-.2,0-.3,0-.4,1.6-.5,2.8-.5,3.7,1-3.1.2-6.4.9-7.5,4.4h-.4c0,.2,0,.3,0,.5h-.5Z" fill="#fefefe" fill-rule="evenodd"/><path d="M122.8,114l-.6-1.3h-.9a4.2,4.2,0,0,1-.5-2.1l-1.7-.2-.3.8c-1.6-.8-1.7-.8-1.9-2.4l-.7-.2a5.7,5.7,0,0,0-.3,1.9h-.7c-.3.5-.6.9-1.2.7V111c2.4-1.2,1-10,.8-12.2l.8,4.8h.5a4.2,4.2,0,0,0-.1,2h.3a1.8,1.8,0,0,1,1.2-1.9c.1-1,.4-2.3,1.5-2.6a8.4,8.4,0,0,1,.3-1.1c3.9-1,10.2-5.6,11.6,1.5l.4.2v.4l-.6.3v.5l.7-.3.2.7h.7v.4h-1.3l.6.7.2-.5h.4c-.2.7-.3,1.5-.4,2.2l.7-.4a4.3,4.3,0,0,1,.2,1.9h.3l.2.7c-.6-.2-.7-.4-1-1s-.1.3-.5.3-.3-.7-.9-.8,0,.3,0,.5-3,2.5-3.7,3.1.3,1.9.5,2.3l-.5.2c-.1-.6-.3-1.1-.4-1.6a2,2,0,0,0-1.7,1.5h-.4v.4c-.6,0-1.5,1-2,1.4" fill="#fefefe" fill-rule="evenodd"/><path d="M110.2,113c.3-.7.5-.7,1.2-1s-.6.7-.7,1h-.5Z" fill="#fefefe" fill-rule="evenodd"/><path d="M130,113a5.6,5.6,0,0,1,0-.9c.4-.2.5-.5,1.1-.7l-.2,1.2h-.4v.3H130Z" fill="#464545" fill-rule="evenodd"/><path d="M158.9,110.9l.2-.2c2.5-3,6-7.1,9.4-8.8,0-.8,1.1-1.2,1.7-1.6s-1.2,1.1-1.2,1.6c-4.2,2.2-7.8,8.4-11.6,11.1a5.9,5.9,0,0,1,1.5-2.1Z" fill="#fefefe" fill-rule="evenodd"/><path d="M145.8,111.4c0-.4,0-.8,0-1.2h-.4c-1-3.6-4.8-16.6,4-12.6a10.1,10.1,0,0,1-.1,1.8l.6.3c-.1,1.2.4,2.2.5,3.4h.5c0,.2,0,.2-.4.2a17.9,17.9,0,0,0,1.2,3.3h.7c0,.2,0,.5,0,.7-2.7.5-4.7,3.6-6.7,4Z" fill="#fefefe" fill-rule="evenodd"/><path d="M114.4,101.9l-.7.5a10.2,10.2,0,0,1,0,2.5h-.9a5.7,5.7,0,0,1-2.5,1.6c0,.1,0,.2,0,.3s-2.9,1-3.2,1.8,4.9-2.9,5.7-2.7l.3.7c-6.4,3.4-6.4,3.4-8.6,4.4a1.6,1.6,0,0,1-.1-.5c1.2-.5.5-2.1.2-3.1l-.4-.2-.2-.8h.6a1,1,0,0,1,.9-1,1.3,1.3,0,0,0,.6,1.1l1.1-.6.2-.9,1.8-.9c.3-2.2,1.5-3.1,3.6-2.9q0-1.4,0-2.8h-.4v-.3c1.4-.1,1.4-.1,1.9.2v.5h-.4c.2,1,.3,2.1.5,3.1Z" fill="#fefefe" fill-rule="evenodd"/><path d="M113.9,109.2c.1-.9.1-1.8.2-2.6s.6,2.3-.2,2.6Z" fill="#fefefe" fill-rule="evenodd"/><path d="M174.6,107.4c.3-1.4-1-2.1-.5-3.3,5.4-2.6,3.1-5.3,7,2.8-4.3,2.6-4.3,1.9-6.5.5Z" fill="#fefefe" fill-rule="evenodd"/><path d="M143.6,107.4l-1.2-.4a1,1,0,0,1,.1-.4c.7,0,1.2.1,1.4.8h-.4Z" fill="#fefefe" fill-rule="evenodd"/><path d="M101.5,106.2a3.7,3.7,0,0,1,1.8-2.6A3.4,3.4,0,0,1,101.5,106.2Z" fill="#fefefe" fill-rule="evenodd"/><path d="M140.6,103.9l.2-.6h.5c-.2.4-.2.4-.6.6Z" fill="#464545" fill-rule="evenodd"/><path d="M129.9,103.1c-.4-.3-.4-.3-1-1.6a25.9,25.9,0,0,1-3.2.6c0-3.2,2.7-3.9,3.1-.7h.7c.2.5.2.9.7,1s-.1.6-.2.7Z" fill="#464545" fill-rule="evenodd"/><path d="M177.9,99.3v.8c-1.1.5-4,3.2-5.2,2.7l-.8-1.4-5.3-16.1c-.6-1.9,4.3-4.7,4.7-2.9h.4v.3h.4C172.8,85.3,177.3,99.1,177.9,99.3Z" fill="#fefefe" fill-rule="evenodd"/><path d="M106.9,102.9c-.3-.7-.4-1.1-1.1-1.4l.6-1.1h.4c.3-.8,1.2-1.5,1.8-2,1.6,2.8,1,2.3-1.7,4.6Z" fill="#fefefe" fill-rule="evenodd"/><path d="M114.4,101.9l.2-.2v.9l-.4.2.2-.9Z" fill="#fefefe" fill-rule="evenodd"/><path d="M107.1,101.9l-.4-.2.3-.9h.6c0,.2,0,.4,0,.7h-.4l-.2.5Z" fill="#464545" fill-rule="evenodd"/><path d="M120,99.3c.1-.4.3-1.2.9-.9l-.9.9Z" fill="#fefefe" fill-rule="evenodd"/><path d="M134.9,99.3c-.2-.5.1-.8.5-.9s-.2.6-.5.9Z" fill="#fefefe" fill-rule="evenodd"/><path d="M120,98.2a2.4,2.4,0,0,1-.1-.6,5.8,5.8,0,0,1,2.3-.5c-.3.3-.3.3-2.3,1.1Z" fill="#fefefe" fill-rule="evenodd"/><path d="M119.1,97.3l-.2-.5h.8c3.2-2.4,5.6-2,9.3-1v.9l-.3.3c-.4-.4-.4-.3-.5-.8h-.4c0,.1,0,.2,0,.4h-.4c0-.2,0-.3,0-.4a37.6,37.6,0,0,0-8.3,1.2Z" fill="#fefefe" fill-rule="evenodd"/><path d="M144.9,96.8a.7.7,0,0,1-.2-.6c.6-.6,1.1-.5,1.9-.4s0,.2,0,.4h-.8l-.9.8Z" fill="#fefefe" fill-rule="evenodd"/><path d="M142.4,93.7c.5-.7,1.7-1.8,2.6-1.6l-1.7.9v.5l-.9.2Z" fill="#464545" fill-rule="evenodd"/><path d="M169.7,77.8c-.2-.3-.2-.3-1.2-.7s-.6-1.6-1.3-1.8,0-.2.5-.2l-.2-.6-.4-.2a2,2,0,0,1,.1-.6h-.9v-.3l.5-.4-.2-.6h-.4a5.4,5.4,0,0,1-.2-.7h-.3v-.3h.4c0-1-.8-1.5-.9-2.6h-.4V67.7l.5.2.2,1.2h.4c.3,1,1.5,2.9,1.5,3.7l.4.2.2.7.7.3c.5,1.7-.1,2,1.7,2.8,0,.2,0,.4,0,.7l-.7.2Z" fill="#464545" fill-rule="evenodd"/><path d="M157.5,122.4l72.3-76.2V40.3l-71.7,78.3a27.8,27.8,0,0,0-.6,3.8Z" fill="#d9dada" fill-rule="evenodd"/><path d="M177.7,82.1,250,5.9V0L178.3,78.3a27.8,27.8,0,0,0-.6,3.8Z" fill="#d9dada" fill-rule="evenodd"/><rect x="230.8" y="86.8" width="0.6" height="17.41" fill="#fefefe"/><rect x="233.2" y="86.8" width="0.6" height="17.41" fill="#fefefe"/></g></g></svg>